<svg xmlns="http://www.w3.org/2000/svg" viewBox="0 0 813.65 153.73"><defs><style>.cls-1{fill:#8b8b8b;}.cls-2{fill:#535353;}.cls-3{fill:#191919;}.cls-4{fill:#18f7d7;}.cls-5{fill:#15efe0;}.cls-6{fill:#2adce6;}.cls-7{fill:#62fca2;}.cls-8{fill:#4ffab2;}.cls-9{fill:#1de7e3;}.cls-10{fill:#45f9bb;}.cls-11{fill:#58fca9;}.cls-12{fill:#2ff6cb;}.cls-13{fill:#6cfd98;}.cls-14{fill:#40cae9;}.cls-15{fill:#34cbeb;}.cls-16{fill:#39d6e1;}.cls-17{fill:#74fd93;}.cls-18{fill:#89fc87;}.cls-19{fill:#7dfd8d;}.cls-20{fill:#99fb81;}.cls-21{fill:#3ef8bf;}.cls-22{fill:#fc185d;}.cls-23{fill:#fa1364;}.cls-24{fill:#fc1f59;}.cls-25{fill:#e616d4;}.cls-26{fill:#fd2759;}.cls-27{fill:#e01ce2;}.cls-28{fill:#e813cb;}.cls-29{fill:#ec10b3;}.cls-30{fill:#e417dc;}.cls-31{fill:#f81070;}.cls-32{fill:#fc475b;}.cls-33{fill:#f20f93;}.cls-34{fill:#eb11c2;}.cls-35{fill:#f0109f;}.cls-36{fill:#fd3059;}.cls-37{fill:#fd3d59;}.cls-38{fill:#fd365a;}.cls-39{fill:#fc515e;}.cls-40{fill:#ee0fa8;}.cls-41{fill:#fc6164;}.cls-42{fill:#e023e8;}.cls-43{fill:#f40e88;}.cls-44{fill:#fb5861;}.cls-45{fill:#f50f80;}.cls-46{fill:#e426d4;}.cls-47{fill:#f8156a;}.cls-48{fill:#f60f78;}.cls-49{fill:#e522cb;}.cls-50{fill:#f3157e;}.cls-51{fill:#dd32ea;}.cls-52{fill:#ed18a2;}.cls-53{fill:#f11589;}.cls-54{fill:#e13adb;}.cls-55{fill:#ee1894;}.cls-56{fill:#f51772;}.cls-57{fill:#e621bc;}.cls-58{fill:#e81ead;}.cls-59{fill:#db53df;}.cls-60{fill:#c566e9;}.cls-61{fill:#d83ee9;}.cls-62{fill:#65f0b3;}.cls-63{fill:#d44de9;}.cls-64{fill:#d17dd7;}.cls-65{fill:#df47dd;}.cls-66{fill:#87ddbe;}.cls-67{fill:#61bee2;}.cls-68{fill:#86a6e3;}.cls-69{fill:#c893d2;}.cls-70{fill:#bf70e7;}.cls-71{fill:#4fc8e1;}.cls-72{fill:#a9c0c8;}.cls-73{fill:#ce5ae7;}.cls-74{fill:#aa89e3;}.cls-75{fill:#d961db;}.cls-76{fill:#75e9b4;}.cls-77{fill:#9dd1be;}.cls-78{fill:#d66dd9;}.cls-79{fill:#9a9ae2;}.cls-80{fill:#74b3e2;}.cls-81{fill:#b8b4c6;}.cls-82{fill:#c3a2cc;}.cls-83{fill:#b97ce1;}.cls-84{fill:#0dfad8;}.cls-85{fill:#0ff5dd;}.cls-86{fill:#26f2d6;}.cls-87{fill:#20eddf;}.cls-88{fill:#23f7d0;}.cls-89{fill:#37d7e7;}.cls-90{fill:#27e6e2;}.cls-91{fill:#35e4df;}.cls-92{fill:#5bf6b0;}.cls-93{fill:#4ff4bd;}.cls-94{fill:#38f7c5;}.cls-95{fill:#40f2c7;}.cls-96{fill:#37f3cc;}.cls-97{fill:#36efd3;}.cls-98{fill:#47bdeb;}.cls-99{fill:#3dc0eb;}.cls-100{fill:#3fcde9;}.cls-101{fill:#e21ede;}.cls-102{fill:#db23e6;}.cls-103{fill:#ea14bd;}.cls-104{fill:#e71cc3;}.cls-105{fill:#f61177;}.cls-106{fill:#d827eb;}.cls-107{fill:#e22fdd;}.cls-108{fill:#d42ded;}.cls-109{fill:#d138ef;}.cls-110{fill:#da3ae6;}.cls-111{fill:#ca51ea;}.cls-112{fill:#cf60e4;}.cls-113{fill:#d846e4;}.cls-114{fill:#c857ed;}.cls-115{fill:#ba63ee;}.cls-116{fill:#cf44ee;}.cls-117{fill:#5cecc1;}.cls-118{fill:#71e5c0;}.cls-119{fill:#c64cf0;}.cls-120{fill:#c180e0;}.cls-121{fill:#cb70e0;}.cls-122{fill:#7bd3d1;}.cls-123{fill:#8fd0ca;}.cls-124{fill:#65aeec;}.cls-125{fill:#5bb3eb;}.cls-126{fill:#51b7eb;}.cls-127{fill:#7f97ee;}.cls-128{fill:#6da6ec;}.cls-129{fill:#8e8fec;}.cls-130{fill:#7b9dec;}.cls-131{fill:#bb99d8;}.cls-132{fill:#b169ef;}.cls-133{fill:#ae7bea;}.cls-134{fill:#97bdd5;}.cls-135{fill:#afacd3;}.cls-136{fill:#a17ded;}.cls-137{fill:#9b8ce9;}.cls-138{fill:#2febda;}.cls-139{fill:#44d4e6;}.cls-140{fill:#41e0de;}.cls-141{fill:#43ead3;}.cls-142{fill:#4eeec7;}.cls-143{fill:#4dc7e9;}.cls-144{fill:#56bfeb;}.cls-145{fill:#db2ee5;}.cls-146{fill:#d433eb;}.cls-147{fill:#cb3aef;}.cls-148{fill:#d143e9;}.cls-149{fill:#ba5bee;}.cls-150{fill:#c151ee;}.cls-151{fill:#ca45ed;}.cls-152{fill:#bb67ea;}.cls-153{fill:#bd72e7;}.cls-154{fill:#ba58f1;}.cls-155{fill:#ad62f1;}.cls-156{fill:#c343f0;}.cls-157{fill:#69dfcd;}.cls-158{fill:#59e6cc;}.cls-159{fill:#bb4df1;}.cls-160{fill:#ad84e7;}.cls-161{fill:#b48ee1;}.cls-162{fill:#73c5df;}.cls-163{fill:#71d3d6;}.cls-164{fill:#86c5d7;}.cls-165{fill:#62b9ea;}.cls-166{fill:#6cacec;}.cls-167{fill:#8a8fee;}.cls-168{fill:#73a1ee;}.cls-169{fill:#78a4ec;}.cls-170{fill:#869ceb;}.cls-171{fill:#9683ee;}.cls-172{fill:#aa9fdd;}.cls-173{fill:#a36ff0;}.cls-174{fill:#86b7df;}.cls-175{fill:#9dacdc;}.cls-176{fill:#9979f0;}.cls-177{fill:#4cd7e1;}.cls-178{fill:#4de7d2;}.cls-179{fill:#54ded8;}.cls-180{fill:#57cbe5;}.cls-181{fill:#60c3e6;}.cls-182{fill:#b257f1;}.cls-183{fill:#af73ec;}.cls-184{fill:#5cd5db;}.cls-185{fill:#64cfde;}.cls-186{fill:#a282eb;}.cls-187{fill:#a692e4;}.cls-188{fill:#6ebae6;}.cls-189{fill:#77afe7;}.cls-190{fill:#8d87ef;}.cls-191{fill:#9686ee;}.cls-192{fill:#9791ea;}.cls-193{fill:#87aae5;}.cls-194{fill:#989fe4;}</style></defs><g id="Layer_2" data-name="Layer 2"><g id="Layer_1-2" data-name="Layer 1"><path class="cls-1" d="M.15,118H0V37.26H.15A1.05,1.05,0,0,1,.39,38c0,.25,0,.5,0,.75q0,38.86,0,77.75C.39,117,.52,117.58.15,118Z"/><path class="cls-2" d="M248.61,153.61a.1.1,0,0,1,0,.12H225.26l.15-.15a1.38,1.38,0,0,1,1-.24h21.24A1.12,1.12,0,0,1,248.61,153.61Z"/><path class="cls-3" d="M.15,118V37.27c3,0,5.93,0,8.9,0,3.53,0,7.07,0,10.61,0,.64,0,.76.19.76.79,0,3,0,6,0,9,0,.27-.24.74.25.79s1,.21,1.32-.37a23.5,23.5,0,0,1,3.8-4.58,28.75,28.75,0,0,1,16.58-8,30,30,0,0,1,14.91,1.57A24.15,24.15,0,0,1,70.62,48.79c.08.18.18.35.29.56a33.82,33.82,0,0,1,8.88-9.2,30.05,30.05,0,0,1,17.34-5.54,32,32,0,0,1,15,2.76c6.47,3.1,10.55,8.26,12.94,14.89a42.65,42.65,0,0,1,2.38,14.42q0,25.3,0,50.61c0,.69-.2.8-.82.79q-10,0-20,0c-.65,0-.86-.11-.86-.82q0-23.52,0-47a23,23,0,0,0-1.15-7.4,11.1,11.1,0,0,0-9.31-8c-5.43-.86-10.21.42-14.15,4.39a22,22,0,0,0-5.27,9.47,32.75,32.75,0,0,0-1.38,9.48q0,19.53,0,39.05c0,.65-.12.87-.84.87q-10,0-20.1,0c-.63,0-.77-.15-.77-.77q0-23.4,0-46.81a23.65,23.65,0,0,0-1-7A11.61,11.61,0,0,0,42,54.85c-4.88-.8-9.31,0-13.05,3.49a19.92,19.92,0,0,0-5.06,7.72,33.6,33.6,0,0,0-2.15,12q0,19.6,0,39.19c0,.66-.12.87-.83.87-6.68,0-13.35,0-20,0Z"/><path class="cls-3" d="M209,69.58a48.84,48.84,0,0,0-.78-9.12,30.77,30.77,0,0,0-5.47-13.07A29.28,29.28,0,0,0,187,36.82a56.91,56.91,0,0,0-27.68-1.09,40.32,40.32,0,0,0-23.67,14.52c-.23.28-.54.47,0,.84q7.44,5,14.84,10.14c.4.28.56.17.83-.14a25,25,0,0,1,3.36-3.38c6.66-5.49,14.18-7,22.38-4.44a15,15,0,0,1,9.58,8.29c1.11,2.45,1.14,5.06,1.08,7.77a3.44,3.44,0,0,1-.47-.13,54.38,54.38,0,0,0-16.18-3.48,51.48,51.48,0,0,0-16.73,1.42,30.11,30.11,0,0,0-14.62,8.67,24.82,24.82,0,0,0-6.39,19,25.41,25.41,0,0,0,10.95,19.93,32.71,32.71,0,0,0,19.72,6,25.86,25.86,0,0,0,17.66-6.45,39.49,39.49,0,0,0,4.49-4.47c.41-.5.92-.34,1.37-.28s.2.55.2.83c0,2.31,0,4.63,0,6.94,0,.61.13.78.76.77q9.82,0,19.66,0c.71,0,.89-.15.89-.88Q209,93.39,209,69.58ZM187.67,85.76c-.44,7.45-4,12.83-10.71,16.14a18.4,18.4,0,0,1-8.64,2A15.66,15.66,0,0,1,159,101a9.9,9.9,0,0,1-1.61-14.68,14.7,14.7,0,0,1,9.25-4.66,36,36,0,0,1,20.65,3.45C187.64,85.22,187.69,85.42,187.67,85.76Z"/><path class="cls-3" d="M379.33,67.36c-3-13.67-10.91-23.59-23.85-29.23a44.7,44.7,0,0,0-27.27-2.63C314,38.38,303.72,46.42,298.05,59.87a45.93,45.93,0,0,0-1.66,30.82,39.26,39.26,0,0,0,16.79,23.11c7.38,4.82,15.55,6.93,25.49,6.92a43,43,0,0,0,8.17-.88c14.64-3.14,25-11.45,30.58-25.44A45.38,45.38,0,0,0,379.33,67.36ZM353.9,92.84a20.33,20.33,0,0,1-18.43,7.77c-9.23-.75-17-7.65-18.74-17.73a26.84,26.84,0,0,1,1.89-16.38,20.74,20.74,0,0,1,20.94-11.8,21,21,0,0,1,18.73,17.5,25.8,25.8,0,0,1,.47,5.15C358.82,83.23,357.46,88.43,353.9,92.84Z"/><path class="cls-3" d="M248.61,153.61l-13.5,0h-9.7c.91-2.06,1.81-4.12,2.74-6.18q7.41-16.32,14.86-32.64a1.48,1.48,0,0,0,0-1.33Q229.52,83,216.05,52.53q-3.24-7.32-6.48-14.63c-.2-.46-.28-.68.39-.68q11.81,0,23.61,0a2.21,2.21,0,0,1,.37,0,1,1,0,0,1,.48.66c.13.35.28.69.42,1s.27.62.4.94.16.38.23.57c.17.42.38.83.54,1.25.31.8.66,1.58,1,2.37.15.44.34.87.51,1.3.31.81.68,1.6,1,2.41.21.45.38.92.58,1.38s.51,1.16.74,1.76a4.31,4.31,0,0,0,.32.77c.21.49.39,1,.6,1.47s.38.91.58,1.36.34.78.49,1.17.43,1,.61,1.45c.1.25.19.52.3.77.16.42.34.84.54,1.24a7.12,7.12,0,0,0,.36.86c.14.36.29.72.44,1.07.3.73.62,1.45.9,2.18.21.45.39.91.58,1.37a4.6,4.6,0,0,0,.33.76c.19.49.39,1,.58,1.45s.31.7.45,1.05.24.5.33.76.25.62.37.93.19.42.29.63a5.42,5.42,0,0,0,.22.56,10.6,10.6,0,0,0,.52,1.2c.12.38.28.74.43,1.11a1.42,1.42,0,0,1,.08.18c.18.37.31.75.48,1.12.2.56.47,1.08.69,1.64a14.61,14.61,0,0,0,.58,1.36c.18.49.37,1,.59,1.45.13.25.21.52.32.78a9.75,9.75,0,0,0,.45,1c.21.49.39,1,.6,1.47s.38.92.58,1.38.44,1,.63,1.48l.06.13c.16.38.21.87.78.86s.6-.46.75-.82c.57-1.41,1.13-2.81,1.69-4.23.22-.53.44-1.07.64-1.61s.46-1.21.71-1.81c.18-.33.31-.7.48-1s.2-.52.31-.77c.2-.49.38-1,.58-1.47.13-.28.21-.59.32-.89s.37-.92.58-1.37c.22-.6.47-1.2.72-1.79s.41-1,.59-1.49.44-1,.58-1.49a5.58,5.58,0,0,1,.46-1.17c.09-.22.21-.43.28-.65s.14-.38.22-.56.17-.43.26-.64a2.85,2.85,0,0,0,.29-.73c.05-.27.24-.48.29-.74a3.1,3.1,0,0,1,.21-.58,5.1,5.1,0,0,0,.42-.92,9.07,9.07,0,0,1,.32-.87c.13-.32.26-.63.38-1a6.45,6.45,0,0,0,.32-.87c.11-.4.4-.73.5-1.13a2.85,2.85,0,0,0,.25-.69c.2-.53.48-1,.65-1.58s.49-1.2.73-1.8.4-1,.6-1.49.4-1,.6-1.5.39-1,.59-1.48.33-.78.47-1.18.28-.71.43-1.06.2-.52.31-.78c.21-.48.39-1,.59-1.46s.25-.73.41-1.08a5.39,5.39,0,0,0,.36-.86c.15-.31.26-.64.39-1s.33-.77.47-1.17.29-.73.43-1.09c.34-.65.4-1.43,1-2,.19,0,.39,0,.59,0h23.5a1.22,1.22,0,0,1-.21.68L272.74,98.23q-11.92,27.43-23.87,54.85C248.8,153.26,248.7,153.43,248.61,153.61Z"/><path class="cls-4" d="M251.42,37.29h6.87a.22.22,0,0,1,0,.33,1,1,0,0,1-.6.14c-1.43,0-2.86,0-4.3,0-.37,0-.85-.13-1,.38a1.41,1.41,0,0,0,.2,1.53,2.07,2.07,0,0,1,.43.5,1.09,1.09,0,0,1,.12,1,2.17,2.17,0,0,1-1.16.65,3.15,3.15,0,0,1-1.57-.29,2.63,2.63,0,0,1-.73-1,24.45,24.45,0,0,1,.83-3C250.75,37.31,251.14,37.52,251.42,37.29Z"/><path class="cls-5" d="M252,41.74a4.54,4.54,0,0,1,1.05-.6c.1-.22.27-.24.49-.21,2.19.34,3.82-.73,5.27-2.17.56-.56.46-.88-.28-1a.46.46,0,0,1-.25-.15v-.27h1.35a1,1,0,0,0,.64.12c.6,0,.81.26.52.79-.88,1.61-2,3-3.88,3.5-.1,0-.21,0-.29,0-1.17.84-2.5.64-3.81.64C252.43,42.37,252,42.3,252,41.74Z"/><path class="cls-6" d="M261.88,37.29h2.54c.42.45.15.82-.15,1.17a3.46,3.46,0,0,1-.67.46,19.92,19.92,0,0,1-2.22,2.28A13.51,13.51,0,0,1,257,44a8.52,8.52,0,0,1-2.32.45,1.41,1.41,0,0,0-.7.19.47.47,0,0,1-.33,0,.32.32,0,0,1-.12-.4,1.24,1.24,0,0,1,.84-.42,11,11,0,0,0,7-4.43,2.27,2.27,0,0,0,.35-.65,1.8,1.8,0,0,1,.29-.43,2.21,2.21,0,0,0,.35-.39C262.36,37.58,261.64,37.8,261.88,37.29Z"/><path class="cls-7" d="M236.88,44.19a15,15,0,0,1-1-2.44,3.67,3.67,0,0,1,1.8-1.64,10.78,10.78,0,0,0,2.6-1.93,2.78,2.78,0,0,1,1.73-.89h1.2c0,.11,0,.24-.08.26-.73.21-1.07.93-1.71,1.24a1.73,1.73,0,0,0-.54.5,5.16,5.16,0,0,1-1.41,1.18A2.57,2.57,0,0,0,238,42.38c0,.39-.52.53-.54.94a1.35,1.35,0,0,1-.14.66A.52.52,0,0,1,236.88,44.19Z"/><path class="cls-8" d="M244.23,37.29h1.05c-.24.6-.83.88-1.27,1.27a13.13,13.13,0,0,0-3.31,3.92,2.88,2.88,0,0,1-.22.38,2.82,2.82,0,0,1-1.32,1.19c-.46-.37-.43-.9-.47-1.4A1.23,1.23,0,0,1,239,42c1.12-1.42,2.45-2.65,3.64-4A2.61,2.61,0,0,1,244.23,37.29Z"/><path class="cls-9" d="M261.88,37.29c.06.36.36.24.58.28.37.06.4.22.11.46a2.67,2.67,0,0,0-.69.73A10.34,10.34,0,0,1,259,41.57a13,13,0,0,1-2.95,1.36.77.77,0,0,1-.78-.11.54.54,0,0,1,.47-.69,4.41,4.41,0,0,0,1.19-.54,7.45,7.45,0,0,0,3.55-3.08.94.94,0,0,0,.2-.77c-.09-.36-.45-.13-.69-.17s-.34-.06-.37-.28Z"/><path class="cls-10" d="M240.35,42.79a11.71,11.71,0,0,1,2.22-3.11,24.52,24.52,0,0,1,2.71-2.39h1.5a.32.32,0,0,1-.18.36.89.89,0,0,1-.32.08,1.36,1.36,0,0,0-1.09.52,20.43,20.43,0,0,0-2.9,3.91,11.69,11.69,0,0,1-.71,1.47.54.54,0,0,1-.21.26C240.53,43.77,240.26,43.48,240.35,42.79Z"/><path class="cls-11" d="M244.23,37.29c-1.49.43-2.2,1.79-3.24,2.74a10.78,10.78,0,0,0-2.13,2.61c-.47.41-.88,1-1.64.59.65-1.25,1.11-2.67,2.64-3.2a.38.38,0,0,0,.17-.14,12,12,0,0,1,3.16-2.6Z"/><path class="cls-12" d="M251.42,37.29c-.18.48-.6.18-.9.27a1.29,1.29,0,0,1-1,.2.85.85,0,0,0-.91.58c-.31.66-.57,1.36-.93,2-.63.36-.65,1.08-.95,1.64a.73.73,0,0,1-.74,0c-.33-.5-.09-1-.05-1.52,0-.3,0-.6.05-.9.26-.77,1-1.24,1.29-2,.2-.17.49-.06.69-.24Z"/><path class="cls-13" d="M242,37.29c-1.28.46-2.05,1.57-3.08,2.35a2.49,2.49,0,0,1-.58.31,10,10,0,0,0-2.47,1.8l-.53-1.2a34.48,34.48,0,0,0,4.79-2.93c.29-.23.65-.2,1-.33Z"/><path class="cls-14" d="M265.91,37.29h6.28a2.22,2.22,0,0,0,.9,1.19c.24.16.65.36.39.81-.61.29-1.15-.26-1.74-.12a1.24,1.24,0,0,1-.87-.58,1.29,1.29,0,0,0-1.34-.84c-1,0-1.92,0-2.88,0a1.64,1.64,0,0,1-.86-.1C265.4,37.44,265.71,37.37,265.91,37.29Z"/><path class="cls-15" d="M265.91,37.29c0,.09-.33.18,0,.26a3.38,3.38,0,0,0,.78,0c.18.25,0,.42-.16.55-.54.4-1,.86-1.61,1.23-.55,0-.87.44-1.25.75-.21.18-.38.51-.75.32-.14-.69.31-1.15.63-1.65.59-.31,1.13-.66.9-1.47Z"/><path class="cls-16" d="M273.54,39.2a3.07,3.07,0,0,0-.88-.84.9.9,0,0,1-.47-1.07h2.89l-.83,2.07C274,39.54,273.71,39.54,273.54,39.2Z"/><path class="cls-17" d="M241.09,37.29c-1.56,1-3.12,2-4.69,3a1.87,1.87,0,0,1-1.07.26l-.21-.59c.32-.52.95-.56,1.41-.87a17.28,17.28,0,0,0,2-1.21,5,5,0,0,1,1.66-.59Z"/><path class="cls-18" d="M234.71,39.05l-.44-1a7.57,7.57,0,0,1,2.65-.6,3.73,3.73,0,0,0,.88-.12h1.35c0,.08,0,.18,0,.21a8.58,8.58,0,0,1-3,1.33C235.64,38.87,235.22,39.26,234.71,39.05Z"/><path class="cls-19" d="M234.71,39.05a22.86,22.86,0,0,0,4.17-1.52,2,2,0,0,0,.27-.24h1c-.07.07-.12.18-.21.21a19.14,19.14,0,0,0-4,2.21c-.29.17-.66-.06-.89.25A2.77,2.77,0,0,1,234.71,39.05Z"/><path class="cls-20" d="M237.8,37.29a17.69,17.69,0,0,1-3.53.72l-.33-.74Z"/><path class="cls-21" d="M248,37.29c-.07.38-.38.24-.6.27a.56.56,0,0,1-.75,0l.15-.27Z"/><path class="cls-22" d="M262.45,68.77l-.6,1.5a1,1,0,0,1-1,.62c-.83,0-1.63.2-2.45.17a.54.54,0,0,0-.22,0c-1.57.84-3.55.37-5,1.59a1.17,1.17,0,0,1-.56.19A3.77,3.77,0,0,0,250.35,74c-.21.23-.41.6-.85.42a4.57,4.57,0,0,1-.48-1.19.77.77,0,0,1,.5-.69,3.33,3.33,0,0,0,1.54-1c.79-.72,1.87-.86,2.74-1.4,1.1-.69,2.43-.64,3.55-1.21a2.06,2.06,0,0,1,1-.08,5.49,5.49,0,0,0,2.26-.32C261.17,68.28,261.82,68.67,262.45,68.77Z"/><path class="cls-23" d="M262.45,68.77c-.09,0-.2.14-.27.12-1.32-.55-2.56.43-3.88.19a1.68,1.68,0,0,0-1.39.32,3.06,3.06,0,0,1-1.29.26c-.24,0-.51,0-.72.14a7.24,7.24,0,0,1-2.52,1.12,4.19,4.19,0,0,0-1.63,1.2c-.5.53-1.36.45-1.73,1.13h0c-.22-.52.1-.82.48-1a3.12,3.12,0,0,0,1.24-1.15.39.39,0,0,1,.14-.17c.89-.3,1.34-1.14,2.05-1.66a1.27,1.27,0,0,1,.82-.32,1,1,0,0,0,1-.72c1.45-.35,2.74-1.17,4.2-1.44a13.09,13.09,0,0,1,3.25-.07c.35,0,.57.36.83.58Z"/><path class="cls-24" d="M249.5,74.44a2.55,2.55,0,0,0,.84-.69,3.13,3.13,0,0,1,2.26-1.07c.49,0,.72-.39,1.08-.55a5.32,5.32,0,0,1,2.94-.68.56.56,0,0,0,.43-.07c1-.92,2.29-.46,3.44-.65a2.49,2.49,0,0,0,1.36-.46,9.76,9.76,0,0,1-.72,1.78,5.42,5.42,0,0,1-1.84.14.45.45,0,0,0-.41.12,2.42,2.42,0,0,1-2,.56,1,1,0,0,0-.58.1,15.67,15.67,0,0,1-2.71,1.21,2.6,2.6,0,0,0-1.39.93c-.13.2-.39.21-.59.29a6,6,0,0,0-1.39.7A8.38,8.38,0,0,1,249.5,74.44Z"/><path class="cls-25" d="M266.49,58.61a2.21,2.21,0,0,1-.32.9,2.16,2.16,0,0,1-1.73.17,15.48,15.48,0,0,0-3.47,0c-.9,0-1.79,0-2.68.07-.05,0-.11,0-.15,0-1.11.52-2.38.46-3.49.93a6.8,6.8,0,0,1-1.14.35,17.93,17.93,0,0,0-3.63,1.5c-.43,0-.81-.07-.66-.67a6.73,6.73,0,0,1,.72-.69,20.44,20.44,0,0,1,4.23-1.86,7.17,7.17,0,0,0,1.66-.32,13.09,13.09,0,0,1,4.38-.66,2.76,2.76,0,0,0,.81-.08,11,11,0,0,1,5.23.19A.78.78,0,0,1,266.49,58.61Z"/><path class="cls-26" d="M250.21,76.1c.24-.75,1-.64,1.53-1,.07,0,.24,0,.27-.06.81-1.24,2.35-1.13,3.4-1.87a4,4,0,0,1,2.44-.56c.14,0,.36,0,.42-.1.65-1.07,1.88-.13,2.67-.76.08-.06.17.14.19.26a5.75,5.75,0,0,1-.54,1.37,19.12,19.12,0,0,0-5.79,1.75,14.12,14.12,0,0,0-2.38,1.49c-.48.37-.93.89-1.66.79A5.11,5.11,0,0,1,250.21,76.1Z"/><path class="cls-27" d="M267.24,56.82a1.14,1.14,0,0,1-.25.61.55.55,0,0,1-.49.11c-1.76-.45-3.51,0-5.26.11a16.92,16.92,0,0,1-2.36.3.24.24,0,0,0-.14,0c-1.07.75-2.35.49-3.52.78-.88.38-1.85,0-2.74.32A.54.54,0,0,1,252,59c-.23-.48,0-.65.45-.81,1.27-.53,2.65-.65,3.95-1.1.59-.21,1.26,0,1.9-.18,1.18-.36,2.49-.28,3.56-1a.91.91,0,0,1,.43-.1c1.11-.07,2.2.24,3.33.06C266.27,55.7,266.79,56.33,267.24,56.82Z"/><path class="cls-28" d="M249.77,62.5a9.36,9.36,0,0,1,2.34-1.24,10.58,10.58,0,0,0,2.75-1,3,3,0,0,1,1.26-.19c.25,0,.52,0,.73-.11a3.8,3.8,0,0,1,2.38-.48,27.48,27.48,0,0,0,4-.25c.54-.09,1.16.31,1.78.25a10.46,10.46,0,0,1,1.12,0l-.38.9c-.64.26-1.26-.07-1.9,0-1.9.18-3.83-.3-5.74.39a21.27,21.27,0,0,1-3.12.62,13.48,13.48,0,0,0-3.12,1.18,1.06,1.06,0,0,1-.35.09c-.65-.13-1.22.45-1.88.2C249.5,62.7,249.62,62.59,249.77,62.5Z"/><path class="cls-29" d="M265.44,61.3l-.36.92c-.76.4-1.52,0-2.27,0a33.07,33.07,0,0,0-4.45.2,28.09,28.09,0,0,0-6.57,2.15c-.49.19-.9.61-1.5.55a.65.65,0,0,1-.57-.42c0-.29.24-.42.48-.51A25,25,0,0,0,252.56,63a16.33,16.33,0,0,1,3.75-1.3,10.44,10.44,0,0,0,2.07-.51c.71-.07,1.41-.24,2.12-.34a5,5,0,0,1,2.2.14,5.57,5.57,0,0,0,1.91.13A1,1,0,0,1,265.44,61.3Z"/><path class="cls-30" d="M255.15,58.61a6.09,6.09,0,0,1,1.94-.29c.3,0,.66.08.86-.15.48-.57,1.1-.47,1.7-.44s1.21-.32,1.87-.35c1.83-.09,3.65-.52,5.47,0,0,.46-.37.77-.5,1.18a11.09,11.09,0,0,1-1.44-.25,10.93,10.93,0,0,0-4.22.21c-.56.2-1.18-.19-1.81,0-1.16.35-2.43.21-3.53.81-.44.25-.92.08-1.38.13C254.18,58.89,254.86,59,255.15,58.61Z"/><path class="cls-31" d="M263.05,67.27c-.21,0-.47.07-.57-.22s-.3-.22-.5-.22a8.67,8.67,0,0,0-2.75.08c-.94.33-2,.29-2.83,1a3,3,0,0,1-1.55.44,6.23,6.23,0,0,1-2.66.83.49.49,0,0,1-.25-.24c-.05-.53.36-.58.7-.79,1.05-.6,2.3-.79,3.26-1.57a9,9,0,0,1,4.66-.71,5.57,5.57,0,0,0,1.63-.08,1.5,1.5,0,0,1,1.33.32Z"/><path class="cls-32" d="M252.76,82.21a6.26,6.26,0,0,1-.62-1.49,12.81,12.81,0,0,1,6.25-4.51c.66-.26.86-.15.95.32a3.25,3.25,0,0,1-.44,1c-.52.67-1.38.73-2.06,1.1a6.34,6.34,0,0,0-1.56,1.1,16.14,16.14,0,0,0-1.81,2A.83.83,0,0,1,252.76,82.21Z"/><path class="cls-33" d="M264.55,63.54l-.3.75a5.62,5.62,0,0,1-2.2,0,10.92,10.92,0,0,0-5.31.67c-1.07.39-2.21.54-3.25,1-.52.12-.9.51-1.39.67-.3.1-.59.31-.9,0a.62.62,0,0,1,.14-.68,3.59,3.59,0,0,1,2.1-1.14c.76-.24,1.42-.67,2.19-.9a25.19,25.19,0,0,1,4.94-.94c1.18-.1,2.32.26,3.48.24A.64.64,0,0,1,264.55,63.54Z"/><path class="cls-34" d="M265.44,61.3a14.81,14.81,0,0,1-3.87-.29c-1.11-.2-2.16.47-3.28.29-1.51,0-2.89.63-4.34.88a3.81,3.81,0,0,0-.9.35,1.06,1.06,0,0,1-1.19,0,5.62,5.62,0,0,1,2.8-1.2c.75,0,1.39-.56,2.15-.52,1.16.07,2.18-.72,3.33-.61,1.31.11,2.63,0,3.95,0,.58,0,1.12.21,1.7.21A2.37,2.37,0,0,1,265.44,61.3Z"/><path class="cls-35" d="M264.55,63.54a18.32,18.32,0,0,0-6-.12c-1.21.24-2.4.56-3.59.89-.49.14-.82.59-1.4.71-.3.06-.62.19-1,.27a4.11,4.11,0,0,0-1.19.79.24.24,0,0,1-.32,0c-.21-.35,0-.56.28-.72a2.53,2.53,0,0,0,.79-.77,22.42,22.42,0,0,1,5.1-1.8,19.33,19.33,0,0,1,5.61-.52,2.93,2.93,0,0,1,2,.5Z"/><path class="cls-36" d="M250.76,77.45a6.86,6.86,0,0,0,1.47-.89,20.1,20.1,0,0,1,3.93-2.18c1.17-.49,2.41-.62,3.58-1a1,1,0,0,1,.85.09,2.3,2.3,0,0,1-.36.87,18.68,18.68,0,0,0-5,1.55c-.73.31-1.22,1-1.91,1.39a3.42,3.42,0,0,0-1.18,1.12,1.25,1.25,0,0,1-.73.6A6.84,6.84,0,0,1,250.76,77.45Z"/><path class="cls-37" d="M259.34,76.53c-.29-.68-.81-.19-1.06-.08a11.07,11.07,0,0,0-2.85,1.44c-.79.66-1.62,1.24-2.45,1.84-.36.25-.18,1-.84,1a2.64,2.64,0,0,1-.43-1c-.15-.41.13-.65.38-.88a12.08,12.08,0,0,1,4.5-2.9,5.31,5.31,0,0,1,2.51-.45c.21,0,.53-.06.54.33A1.65,1.65,0,0,1,259.34,76.53Z"/><path class="cls-38" d="M259.64,75.78a3.07,3.07,0,0,0-2.55.15c-.56.34-1.21.45-1.8.74a14,14,0,0,0-3.5,2.74c-.06,0-.06.18-.08.27a1.41,1.41,0,0,1-.31-.73,6.78,6.78,0,0,1,2.44-2.29l.07,0c.88-1,2.17-1.16,3.26-1.73a20,20,0,0,1,2.81-.72c.06,0,.17.08.25.12A6.17,6.17,0,0,1,259.64,75.78Z"/><path class="cls-39" d="M252.76,82.21c.71-.57,1.16-1.37,1.84-2a9.17,9.17,0,0,1,2.2-1.72,14.58,14.58,0,0,0,2.1-.93,9.4,9.4,0,0,1-.73,1.84A11.39,11.39,0,0,0,254,82.93c-.18.26-.32.57-.67.66A4.65,4.65,0,0,1,252.76,82.21Z"/><path class="cls-40" d="M264.84,62.79a18.74,18.74,0,0,0-5.18-.27,13.73,13.73,0,0,0-1.93.44c-1,.16-1.9.5-2.86.7a3.49,3.49,0,0,0-1.1.38,5.25,5.25,0,0,1-1.61.7,4.06,4.06,0,0,1-2.81,1.09c0-.59.43-.7.87-.8,1.38-.56,2.78-1.1,4.13-1.71a16.82,16.82,0,0,1,4.49-1.18,24.14,24.14,0,0,1,6.24.08Z"/><path class="cls-41" d="M257.54,81c-.63,1.61-1.27,3.21-1.88,4.82-.14.36-.37.39-.69.39s-.65,0-.76-.4a6.81,6.81,0,0,0-.26-.76c-.23-.59,0-.94.43-1.4.74-.76,1.3-1.7,2.12-2.39C256.8,81,257.09,80.68,257.54,81Z"/><path class="cls-42" d="M267.24,56.82c-.38.13-.56-.28-.71-.42a1.83,1.83,0,0,0-1.75-.33c-.82.14-1.63-.22-2.45-.14-.06-.39.21-.54.47-.71a8.35,8.35,0,0,1,3.1-.83c.25,0,.4-.27.64-.36.85,0,1.33.4,1.33,1.19A8,8,0,0,1,267.24,56.82Z"/><path class="cls-43" d="M253.36,65.93a.92.92,0,0,1,.7-.46c1.05-.24,2.06-.62,3.09-.92a9.77,9.77,0,0,1,4.74-.48,12.49,12.49,0,0,1,2.36.22,1.2,1.2,0,0,1-.26.6.75.75,0,0,1-.71.11,7.8,7.8,0,0,0-3.4,0,3.05,3.05,0,0,1-.52,0,13.54,13.54,0,0,0-5.8,1.67.81.81,0,0,1-.43.08C252.47,66.32,253.13,66.18,253.36,65.93Z"/><path class="cls-44" d="M257.54,81a.92.92,0,0,0-.86.34,9.3,9.3,0,0,0-1.69,2,1.37,1.37,0,0,1-.77.76c-.45.16-.2.65-.27,1a5.57,5.57,0,0,1-.61-1.47,12.88,12.88,0,0,1,3.12-3.42c.42-.31,1.11-.17,1.3-.87,0-.14.3-.06.41.12A7,7,0,0,1,257.54,81Z"/><path class="cls-45" d="M253.06,66.68c.82-.35,1.64-.71,2.47-1.05a19.79,19.79,0,0,1,4.64-.93,13.94,13.94,0,0,1,3.82.19l-.21.59c-.06,0-.14.12-.19.1-.77-.41-1.59,0-2.4-.16s-1.73.28-2.64.31a12.63,12.63,0,0,0-3.4.74,5.42,5.42,0,0,1-1.52.81c-.37,0-.78.3-1.1-.12C252.45,66.72,252.79,66.73,253.06,66.68Z"/><path class="cls-46" d="M249.92,61.3c0,.35-.38.42-.6.6a14,14,0,0,1-2.58,1.79c-.5.28-.74.85-1.29,1l-.57-1.34a.62.62,0,0,1,.41-.46,5.28,5.28,0,0,0,1.25-1,3.69,3.69,0,0,1,1.78-1.08,1.21,1.21,0,0,0,.92.33C249.48,61.16,249.73,61.09,249.92,61.3Z"/><path class="cls-47" d="M252.16,69.07c1-.08,1.73-.75,2.69-.75-.1.55-.36.79-1,.78-.8,0-1.26.65-1.72,1.2-.23.27-.41.57-.81.56,0,0-.07,0-.07,0-.57.9-1.63,1.3-2.23,2.16,0,0,0,.15,0,.22a4.18,4.18,0,0,1-.5-1.17A3,3,0,0,1,250,70.57C250.8,70.22,251.34,69.44,252.16,69.07Z"/><path class="cls-48" d="M255,66.38c.44-.56,1.14-.33,1.7-.54,1.19-.46,2.52-.25,3.76-.63a1.68,1.68,0,0,1,1.31.1c.06,0,.17.09.19.07.65-.68,1.21.09,1.82.1l-.26.6a46,46,0,0,0-5.51,0,9.58,9.58,0,0,0-2.11.57A1.34,1.34,0,0,1,255,66.38Z"/><path class="cls-49" d="M245.45,64.73a3.74,3.74,0,0,1,1.5-1.34c.62-.29,1.07-.88,1.73-1.15.22-.1.36-.35.64-.34-.17.44.31.39.45.6l-.15.3c-.06.51-.55.62-.87.84A8.27,8.27,0,0,0,247.28,65c-.47.28-.85.85-1.52.48A1.47,1.47,0,0,1,245.45,64.73Z"/><path class="cls-50" d="M252.61,67.13c.35.2.7-.11,1,0,.19.36-.08.54-.33.58-1,.16-1.59,1-2.44,1.43a12.13,12.13,0,0,1-2.16,1.61c-.23.15-.45.33-.73.11l-.23-.57a6.34,6.34,0,0,1,2.83-2.42c.39-.16.7-.48,1.08-.66A1.12,1.12,0,0,1,252.61,67.13Z"/><path class="cls-51" d="M267.87,55.22c-.25-.62-.6-1.1-1.36-1.09a1.27,1.27,0,0,1-.73-.79,1.76,1.76,0,0,1,.21-1c.27-.25.66-.28.95-.51a2.36,2.36,0,0,1,1.67,1.54A8.56,8.56,0,0,1,267.87,55.22Z"/><path class="cls-52" d="M249.32,65.78A6.74,6.74,0,0,0,251.5,65a1.83,1.83,0,0,1,.66-.28c.05.45-.33.57-.61.74s-.49.25-.43.6c-.62.6-1.47.88-2.12,1.43-.41.35-.87.64-1.26,1-.15.15-.32.41-.62.23l-.3-.75c.61-.62,1.24-1.23,1.82-1.89A.73.73,0,0,1,249.32,65.78Z"/><path class="cls-53" d="M252.61,67.13a12,12,0,0,0-3.64,2c-.44.32-.63.94-1.2,1.17l-.27-.62A8.45,8.45,0,0,1,250.78,67c.18-.07.3-.25.49-.32a2.93,2.93,0,0,0,1.52-.65c.2-.15.34-.25.57-.1.16.35-.57.35-.3.75C253,66.87,252.58,66.8,252.61,67.13Z"/><path class="cls-54" d="M245.29,63.09l-.41.3c-.31-.75-.62-1.49-.92-2.23a7.84,7.84,0,0,1,1.82-1.86.94.94,0,0,1,.93.53c0,.59-.69.79-.84,1.33-.08.28-.25.53-.17.84A1,1,0,0,1,245.29,63.09Z"/><path class="cls-55" d="M251.27,66.68a.53.53,0,0,1-.36.52c-1.34.34-2.12,1.39-3,2.29a.59.59,0,0,1-.4.18l-.38-.9a28.17,28.17,0,0,1,3.19-2.35c.27-.16.57-.16.81-.34h.29A1,1,0,0,0,251.27,66.68Z"/><path class="cls-56" d="M248,70.86a6.37,6.37,0,0,0,2.34-1.54.62.62,0,0,1,.48-.25c.38-.21.76-.41,1.19-.15l.15.15a4.1,4.1,0,0,1-1.28,1.14,10.69,10.69,0,0,0-2.36,1.87C248.35,71.67,248.17,71.26,248,70.86Z"/><path class="cls-57" d="M245.76,65.48c.61.1,1-.4,1.47-.59.75-.18,1.46-.5,2.22-.65.29.33.06.59-.13.84A16.8,16.8,0,0,1,246.71,67a.25.25,0,0,1-.34,0Z"/><path class="cls-58" d="M246.37,67a31.71,31.71,0,0,0,2.8-1.94c.22-.07.31-.37.6-.29l.45.29-.9.75c-1,.59-1.37,1.83-2.5,2.24Z"/><path class="cls-59" d="M243.52,60.11a2,2,0,0,1-.34-.85.85.85,0,0,1,.22-.95A12.4,12.4,0,0,1,244.62,57a1.44,1.44,0,0,1,1.42-.54.53.53,0,0,1,.14.3.91.91,0,0,1-.49.78,1.82,1.82,0,0,0-.6.75,5.05,5.05,0,0,0-.93,1.39C244.09,59.92,243.93,60.29,243.52,60.11Z"/><path class="cls-60" d="M270.86,47.76a3.47,3.47,0,0,1-.46,1.15.5.5,0,0,1-.49-.24,1.17,1.17,0,0,0-1.05-.52.91.91,0,0,1-.69-.61,1,1,0,0,1,.62-1,3.62,3.62,0,0,1,1.66.28C270.92,47,271,47.33,270.86,47.76Z"/><path class="cls-61" d="M268.61,53.39A6.89,6.89,0,0,0,267,51.9c-.26-.23-.46-.47-.27-.84a2.07,2.07,0,0,1,1.54-.23,1.48,1.48,0,0,1,1,1.07A5.79,5.79,0,0,1,268.61,53.39Z"/><path class="cls-62" d="M236.88,44.19a.35.35,0,0,1,.34-.21c.29-.09.43.14.62.29s.25.3.41.28c.79-.1,1.1.47,1.46,1a1,1,0,0,1,0,.81.6.6,0,0,1-.4.22c-.52.19-.84-.13-1.18-.43a8.94,8.94,0,0,0-.71-.66A5.29,5.29,0,0,1,236.88,44.19Z"/><path class="cls-63" d="M269.2,51.9c-.39-.21-.48-.72-.89-.9a7.48,7.48,0,0,1-.84-1.38.35.35,0,0,1,.08-.31,1.88,1.88,0,0,1,1-.21c.6.26,1.26.46,1.24,1.3A5.42,5.42,0,0,1,269.2,51.9Z"/><path class="cls-64" d="M242.32,57.27l-.61-1.49c.42-.56.66-1.31,1.49-1.43a2.94,2.94,0,0,1,.8.38,1.15,1.15,0,0,1-.21,1.07C243.3,56.29,243,56.93,242.32,57.27Z"/><path class="cls-65" d="M243.52,60.11a1.13,1.13,0,0,0,.63-.86c.06-.44.5-.67.84-.93.26.26.64.4.82.75a.28.28,0,0,1-.07.29c-.34.75-1.27,1-1.52,1.84l-.26,0Z"/><path class="cls-66" d="M239,49.22a4.79,4.79,0,0,1-.57-1.36c-.13-.21,0-.33.18-.35a2.16,2.16,0,0,1,.8.07,4.4,4.4,0,0,0,1.26.49,1,1,0,0,1,.48.87,1.1,1.1,0,0,1-1,.55A2.7,2.7,0,0,1,239,49.22Z"/><path class="cls-67" d="M273.82,40.4l-.47,1.19c-.69.19-1.2-.23-1.76-.49-.2-.24-.6-.28-.63-.67.23,0,.17-.23.17-.39a.88.88,0,0,1,.62-.4A10.68,10.68,0,0,1,273.82,40.4Z"/><path class="cls-68" d="M273,42.5a2.31,2.31,0,0,1-.34.88,5.08,5.08,0,0,1-1.64-.32l-.48-.18c-.22-.12-.45-.23-.46-.53a3,3,0,0,1,.81-.85.74.74,0,0,1,.33,0A6.72,6.72,0,0,1,273,42.5Z"/><path class="cls-69" d="M243.19,54.43c-.72.2-.83,1.06-1.48,1.35a4.21,4.21,0,0,1-.49-1.18c0-.59.59-.77.86-1.18.49-.11,1-.25,1.27.36A.67.67,0,0,1,243.19,54.43Z"/><path class="cls-70" d="M270.86,47.76c0-.79-.62-.82-1.16-.93-.31-.07-.63-.11-.95-.16a.5.5,0,0,1-.14-.33.82.82,0,0,1,.31-.65,1.9,1.9,0,0,1,.85-.13c.85-.09,1.27.39,1.53,1.11A3.33,3.33,0,0,1,270.86,47.76Z"/><path class="cls-71" d="M273.82,40.4c-.54,0-1.11,0-1.51-.51-.11-.16-.37-.08-.57-.09s-.44-.1-.37-.41.21-.27.37-.34.51-.24.75,0,.69.17,1.05.19a1.11,1.11,0,0,0,.71.15Z"/><path class="cls-72" d="M240,51.75a1.64,1.64,0,0,1-.32-.74c.26-.48.78-.54,1.22-.72a.86.86,0,0,1,.45,0,1,1,0,0,1,.83.86.89.89,0,0,1-.52.76A2.09,2.09,0,0,1,240,51.75Z"/><path class="cls-73" d="M269.8,50.4c-.18-.61-.74-.85-1.2-1.19-.19-.47.08-.83.3-1.2.85-.27,1,.57,1.5.9A5.68,5.68,0,0,1,269.8,50.4Z"/><path class="cls-74" d="M272.19,44.43a5.86,5.86,0,0,1-.59,1.5c-.27-.19-.58-.3-.85-.47a9.33,9.33,0,0,1-1.14-.94c.13-.18-.28-.26-.08-.45.58-.29,1.2,0,1.79-.12A1,1,0,0,1,272.19,44.43Z"/><path class="cls-75" d="M244.69,57.12c-.38.43-.76.85-1.13,1.28a1.13,1.13,0,0,0-.38.86,4.74,4.74,0,0,1-.55-1.24c.41-.63.7-1.37,1.51-1.63C244.54,56.47,244.6,56.8,244.69,57.12Z"/><path class="cls-76" d="M239.46,47.71c-.34.14-.75-.28-1.05.15a16.79,16.79,0,0,1-1-2.39c.49,0,.74.45,1.06.74s.4.37.7.16C239.49,46.77,239.37,47.26,239.46,47.71Z"/><path class="cls-77" d="M241,50.4l-1.23.61a8.45,8.45,0,0,1-.74-1.79,2.21,2.21,0,0,1,1.22.14C240.47,49.69,241.06,49.8,241,50.4Z"/><path class="cls-78" d="M244.09,56.52a3,3,0,0,0-.9,1c-.16.21-.28.44-.56.52l-.31-.75a7.83,7.83,0,0,1,1.32-1.49c.27-.22.54-.3.81,0S244.38,56.36,244.09,56.52Z"/><path class="cls-79" d="M272.19,44.43c-.33,0-.53-.39-.9-.3-.38-.14-.81-.24-.84-.77s.26-.42.55-.42c.5.3,1.18,0,1.63.44C272.46,43.72,272.45,44.13,272.19,44.43Z"/><path class="cls-80" d="M273,42.5a6.9,6.9,0,0,1-1.82-.91.41.41,0,0,1-.07-.46c.13-.17.29-.29.51-.14l1.76.6Z"/><path class="cls-81" d="M240,51.75c.55-.1,1.11.19,1.66,0a1.23,1.23,0,0,1,0,1.23c-.34.15-.65.45-1.08.26A5.7,5.7,0,0,1,240,51.75Z"/><path class="cls-82" d="M240.65,53.24c.37-.05.64-.42,1-.3a.47.47,0,0,1,.57-.07c.28.38-.1.48-.27.67.15.65-.67.59-.78,1.06A5.23,5.23,0,0,1,240.65,53.24Z"/><path class="cls-83" d="M270.85,45.32c.2.26.77.07.75.61a1.55,1.55,0,0,1-.3.74c-.15-.13-.38-.22-.44-.38-.19-.54-.6-.56-1.06-.52C269.93,45.11,270.43,45.32,270.85,45.32Z"/><path class="cls-84" d="M252.91,40.4c-.36-.5-1-.8-.92-1.61.08-1.09.15-1.23,1.22-1.23h4.48c.28.41,0,.71-.22,1a4.56,4.56,0,0,1-2.53,1.59,4.12,4.12,0,0,0-.83.3A1.2,1.2,0,0,1,252.91,40.4Z"/><path class="cls-85" d="M252.91,40.4a6.62,6.62,0,0,0,4.33-1.86,1.29,1.29,0,0,0,.45-1h.6c.1,0,.2,0,.3,0,.28,0,.7-.16.81.15a1.05,1.05,0,0,1-.27,1,7.76,7.76,0,0,1-4.25,2.49,7.47,7.47,0,0,1-1.82-.08C252.91,40.91,253.11,40.62,252.91,40.4Z"/><path class="cls-86" d="M246.78,41.89a1.42,1.42,0,0,1,.75-1.64,1.79,1.79,0,0,1,2.24.3c.13.34.59.47.6.89a1.27,1.27,0,0,1-.45,1.46,2.93,2.93,0,0,1-2.79-.5C247,42.27,246.71,42.19,246.78,41.89Z"/><path class="cls-87" d="M249.92,42.79a2.82,2.82,0,0,0,.45-1.35c.52.25,1.13,0,1.64.3.13.23.29.46.56.43,1.27-.12,2.64.37,3.79-.57.16-.13.39-.26.59,0a.76.76,0,0,1-.89.6c-.45-.06-.56.33-.76.6a4.06,4.06,0,0,1-2.91.79,8.62,8.62,0,0,1-2.31-.35A.38.38,0,0,1,249.92,42.79Z"/><path class="cls-88" d="M249.77,40.55a3.54,3.54,0,0,0-2.24-.3,21.36,21.36,0,0,0,1-2.13c.14-.43.31-.61.76-.57s.85,0,1.27,0A19.24,19.24,0,0,1,249.77,40.55Z"/><path class="cls-89" d="M263.52,38.76c-.12.57-.53,1-.6,1.64a8.15,8.15,0,0,1-2.55,2.51,5.74,5.74,0,0,1-2.14,1.29,12.28,12.28,0,0,1-3.49,1.17,1.45,1.45,0,0,1-.58.07,5.48,5.48,0,0,0-2.13.18,3,3,0,0,1-1.54,0,.31.31,0,0,1-.15-.43,12.51,12.51,0,0,1,3.32-.58H254c.18-.15.43-.14.6-.3a10.13,10.13,0,0,0,4.92-1.87c1.08-.79,2-1.72,3-2.52C263,39.56,263,38.93,263.52,38.76Z"/><path class="cls-90" d="M250.07,43.09c.09,0,.19.12.27.11a6.29,6.29,0,0,1,2,.19,8.65,8.65,0,0,0,3-.6,2.71,2.71,0,0,0,1.47-.35,13.21,13.21,0,0,0,3.32-2c.63-.54,1-1.31,1.79-1.7a1.67,1.67,0,0,1-.51,1,13.82,13.82,0,0,1-4.94,3.73c-1,.44-2,.3-2.92.82s-1.78-.22-2.68-.21c-.26-.12-.18-.63-.68-.54C250,43.57,249.93,43.27,250.07,43.09Z"/><path class="cls-91" d="M250.82,44a14.3,14.3,0,0,1,2.69.3l.15.3a10.57,10.57,0,0,1-3.29.6,2.47,2.47,0,0,1-1.73.16,4,4,0,0,0-1.61,0,.68.68,0,0,1-.8-.24.74.74,0,0,1,0-.72,1,1,0,0,1,.65-.52,16.9,16.9,0,0,1,3.26-.08A1.18,1.18,0,0,1,250.82,44Z"/><path class="cls-91" d="M254.55,44.28c-.11.27-.34.31-.6.3A.54.54,0,0,1,254.55,44.28Z"/><path class="cls-92" d="M239.61,45.47a.45.45,0,0,1-.46-.4c0-.18-.19-.38-.35-.32-.82.32-1.06-.5-1.58-.77v-.75c.66.14,1.05-.51,1.64-.59a4.48,4.48,0,0,0,.3,1.34c.44.27.36.79.56,1.18A.36.36,0,0,1,239.61,45.47Z"/><path class="cls-93" d="M239.61,45.17c-.36-.32-.24-.81-.45-1.19.37-.43.89-.7,1.19-1.19,0,.69.56.83,1.05,1a.38.38,0,0,1,.26.34.53.53,0,0,1-.39.54,1.64,1.64,0,0,0-.7.6A.64.64,0,0,1,239.61,45.17Z"/><path class="cls-94" d="M246.63,37.56h.75c-.14.77-.76,1.22-1.2,1.79-.48,1.55-1.73,2.48-2.88,3.48-.17,0-.23-.18-.27-.33a2.07,2.07,0,0,1,.54-1.68c.84-1.16,1.89-2.14,2.76-3.26Z"/><path class="cls-21" d="M246.33,37.56a8.49,8.49,0,0,1-1.44,2c-.78.84-1.79,1.58-1.7,2.94a10.25,10.25,0,0,1-1.26,1,.37.37,0,0,1-.53,0,3.78,3.78,0,0,0,.61-1.28c.39-1.07,1.29-1.82,1.83-2.83a11.09,11.09,0,0,1,1.63-1.76C245.67,37.43,246,37.59,246.33,37.56Z"/><path class="cls-95" d="M241.4,43.53c.71-.15,1.06-.93,1.79-1a.33.33,0,0,0,.15.3c.57.21.48.73.56,1.18a1.14,1.14,0,0,1-1.12.86c-.44-.19-1-.23-1.23-.7l-.15-.3Z"/><path class="cls-96" d="M243.79,44c-.21-.37-.09-.87-.45-1.19a26.2,26.2,0,0,1,1.9-2,6.24,6.24,0,0,0,.94-1.4c.1.86-.19,1.69-.15,2.54a2.71,2.71,0,0,1-1.17,1.47c-.3.16-.4.49-.65.69A.37.37,0,0,1,243.79,44Z"/><path class="cls-97" d="M244.24,44c0-.12,0-.3,0-.35A11.45,11.45,0,0,0,246,41.89h.75a.45.45,0,0,0,.45.3c.23.36.31.72-.08,1s-.22.53-.37.77l-.45.45A1.59,1.59,0,0,1,244.24,44Z"/><path class="cls-98" d="M271.74,39.05a.45.45,0,0,1-.3.3.47.47,0,0,1-.49.08,8.84,8.84,0,0,0-3-.15,2.84,2.84,0,0,0-1.6.53,10.36,10.36,0,0,0-2,1.45,2.13,2.13,0,0,1-.74.49c-.24.1-.45.32-.75.18a.41.41,0,0,1-.1-.32,5.45,5.45,0,0,1,1.61-1.8,8,8,0,0,1,5-1.68,1.91,1.91,0,0,1,1.57.47Z"/><path class="cls-99" d="M271,38.6a8.83,8.83,0,0,0-2.41-.2A9.14,9.14,0,0,0,264.42,40c-.08-.39.2-.56.45-.75.49-.66,1.42-.84,1.79-1.64,1,0,2.07,0,3.1,0A1.07,1.07,0,0,1,271,38.6Z"/><path class="cls-100" d="M264.87,39.2l-.45.75c-.43.61-1.1,1-1.5,1.64a9.78,9.78,0,0,1-3.68,2.71,9.47,9.47,0,0,0-1.59.8.71.71,0,0,1-.83.13c-.17-.33.11-.43.31-.52a6.3,6.3,0,0,0,1.16-.73,10.52,10.52,0,0,0,2.6-1.73l2-1.85a2.44,2.44,0,0,0,1-.82A1.06,1.06,0,0,1,264.87,39.2Z"/><path class="cls-101" d="M249.92,61.3a5.65,5.65,0,0,1-1.3,0c-.3-.07-.35-.21-.34-.46.27-.39,0-1,.6-1.28a9.69,9.69,0,0,1,2.14-.8,1.12,1.12,0,0,1,1,.14,2.07,2.07,0,0,0,1.22-.22.41.41,0,0,1,.35-.06c.53.35,1,0,1.57,0-.08.62-.81.46-1,.9C252.73,60.16,251.25,60.56,249.92,61.3Z"/><path class="cls-102" d="M252,58.91a6.15,6.15,0,0,0-3.14.9.37.37,0,0,1-.08-.32A5.89,5.89,0,0,1,250.6,58a52.16,52.16,0,0,1,6-1.79c1.53-.43,3.16-.23,4.61-1a1.75,1.75,0,0,1,1.57.09l-.44.6a.83.83,0,0,0-.61.22,1.6,1.6,0,0,1-1.5.47.47.47,0,0,0-.35.05,5,5,0,0,1-2,.49c-.35.07-.65.27-1,0a.39.39,0,0,0-.49.07,1.18,1.18,0,0,1-1.08.37c-1.07-.1-1.87.78-2.93.76C252,58.34,252,58.65,252,58.91Z"/><path class="cls-103" d="M249.77,64.74c-.21.08-.34.32-.6.29.14-.23.36-.43.3-.74-.28-.4-.09-.66.29-.8a17.47,17.47,0,0,0,1.8-1h.3a2.9,2.9,0,0,0,1.54-.37c.83-.39,1.79-.39,2.67-.74a2.64,2.64,0,0,1,2.22-.09.5.5,0,0,1-.55.3,4.6,4.6,0,0,0-2.06.39,16.55,16.55,0,0,0-3,1.12,9.81,9.81,0,0,1-2.57,1.33C250,64.48,249.87,64.63,249.77,64.74Z"/><path class="cls-104" d="M251.56,62.5a2.85,2.85,0,0,1-1.62,1.09c-.36.14-.53.31-.47.7a3.25,3.25,0,0,1-2.24.6,5.61,5.61,0,0,1,2-1.79l.4-.3C250.3,62.88,250.87,62.31,251.56,62.5Z"/><path class="cls-105" d="M252,68.92a6,6,0,0,1-1.19.15A5.55,5.55,0,0,1,253,67.61c.29-.07.61-.07.63-.48l1.34-.75c.34,0,.68,0,.9.3-.29.71-1,.67-1.6.87-.25.09-.54.07-.7.33a.91.91,0,0,1-.87.44A.63.63,0,0,0,252,68.92Z"/><path class="cls-106" d="M262.77,55.33a4.86,4.86,0,0,0-2.53.5,3.36,3.36,0,0,1-1.61.15,2.53,2.53,0,0,0-1.18.27c-.6.34-1.26.19-1.87.36l-4.07,1.15c-.34.1-.56.53-1,.41a3,3,0,0,1,2.11-1.78l.23,0a4.54,4.54,0,0,0,2.3-.49,7.37,7.37,0,0,1,1.73-.34,28.18,28.18,0,0,1,3.37-.85c1.75-.23,3.25-1.24,5-1.38.23,0,.48-.2.65.11l.6.74a1,1,0,0,1-1,.51,2.11,2.11,0,0,0-1.73.47C263.52,55.38,263.13,55.34,262.77,55.33Z"/><path class="cls-107" d="M248.87,59.51v.3c-.16,0-.31.07-.22.28.17.4-.09.59-.37.76a12.87,12.87,0,0,0-2.46,2,.74.74,0,0,1-.53.23,2.14,2.14,0,0,0,.19-1.31c-.11-.58.39-1,.74-1.49.13-.16.41-.2.41-.48a.4.4,0,0,1,.31-.41C247.57,59.67,248.23,59.42,248.87,59.51Z"/><path class="cls-108" d="M265.91,53.39a11.07,11.07,0,0,0-3.09.79,7.17,7.17,0,0,1-2.2.59,13,13,0,0,0-2.44.68,6.39,6.39,0,0,1-1.57.3c-1.31.15-2.46,1.06-3.85.77-.27-.63.19-.68.62-.79a12.44,12.44,0,0,0,3.37-1.1,9.66,9.66,0,0,0,3.19-1.05,8.91,8.91,0,0,1,1.53-.2,1.86,1.86,0,0,0,1-.24,12.45,12.45,0,0,1,2.26-.88,1.3,1.3,0,0,1,1.33.08Z"/><path class="cls-109" d="M266.06,52.34a6.39,6.39,0,0,0-3.26.91,6.61,6.61,0,0,1-2.86.44,2.26,2.26,0,0,1,1.29-.86,25.94,25.94,0,0,0,3.85-1.71,1.48,1.48,0,0,1,.35-.13c.42,0,.85-.16,1.23.16l.3.75C266.84,52.4,266.43,52.32,266.06,52.34Z"/><path class="cls-110" d="M246.93,59.51l-.3.3-.89-.45v-.3a.46.46,0,0,1,.22-.68c.4-.22.69-.57,1.09-.78a3.47,3.47,0,0,0,1-.51,1.55,1.55,0,0,1,1.29-.39c.39.22.13.46,0,.69s-.51.6-.69,1C247.89,58.48,247.53,59.17,246.93,59.51Z"/><path class="cls-111" d="M246,56.82v-.3c-.06-.84.59-1.28,1.05-1.84a.48.48,0,0,1,.29-.07l.2,0a13.26,13.26,0,0,1,2.44,0c.25.36-.1.5-.26.7a.87.87,0,0,1-.18.11,3.74,3.74,0,0,0-1.18.59c-.57.1-1,.53-1.55.67C246.57,56.72,246.34,57,246,56.82Z"/><path class="cls-112" d="M247.08,54.73c0,.07.07.2,0,.21-.61.36-.77,1-1.1,1.58a2.87,2.87,0,0,0-1.34.6c-.43,0-.17-.63-.6-.6.13-.23.36-.43.3-.74.39-.54,1.14-.6,1.53-1.14a.83.83,0,0,1,.34-.1C246.55,54.54,246.85,54.49,247.08,54.73Z"/><path class="cls-113" d="M246,56.82l.75-.3a1.23,1.23,0,0,1,.3,1.2c-.35.25-.56.68-1,.79-.22.05-.28.32-.31.55-.22-.27-.8-.19-.74-.74s.25-.68.57-.88S246,57.14,246,56.82Z"/><path class="cls-114" d="M268.9,48c.1.45-.24.79-.3,1.2a3,3,0,0,1-1,.15,2.67,2.67,0,0,1-1.7-.63A2.48,2.48,0,0,1,268,47.4a.77.77,0,0,1,.31.16C268.41,47.83,268.68,47.89,268.9,48Z"/><path class="cls-115" d="M268.31,47.56H268c-.42-.26-.73,0-1.09.18a7.29,7.29,0,0,1-2.79.76c-.13-.33.1-.52.29-.72a13.37,13.37,0,0,1,2.63-1.29c.56-.13,1.11-.42,1.7-.12v.3C268.52,46.93,268.27,47.17,268.31,47.56Z"/><path class="cls-116" d="M266.66,51.15h-1.34c-.32-.08-.71.32-.95-.17,0-.31.23-.45.43-.62s.57-.39.84-.6a1.56,1.56,0,0,1,1.92-.11c.52.3.55.87.75,1.35A4.59,4.59,0,0,0,266.66,51.15Z"/><path class="cls-117" d="M239.61,45.17c.3,0,.59.35.89,0a1.66,1.66,0,0,1,1.09.58c.09.45-.22.74-.41,1.09a.55.55,0,0,1-.39.21c-.44-.15-1-.14-1.18-.69v-1.2Z"/><path class="cls-118" d="M239.61,46.37l1.19.6c.48.37.18.78.06,1.18a.14.14,0,0,1-.21,0c-.46,0-.92,0-1.19-.45-.46-.36-.19-.89-.3-1.34Z"/><path class="cls-119" d="M267.56,49.65a2.78,2.78,0,0,0-2.69.9c-.45-.19-.94,0-1.39-.15-.24-.69.39-.83.73-1.15a2.58,2.58,0,0,1,1.7-.49c.53.25,1.18.19,1.65.6Z"/><path class="cls-120" d="M243.19,54.43v-.59c.17-.2.3-.44.59-.47a10.06,10.06,0,0,0,1.81-.3.82.82,0,0,1,.55.1c.19.36-.17.45-.33.63a5.83,5.83,0,0,1-.81.76c-.33.19-.65.48-1.06.17C243.65,54.73,243.34,54.78,243.19,54.43Z"/><path class="cls-121" d="M243.94,54.73c.41.12.69-.24,1.05-.3s.63.11.89.3c-.21.75-1,.75-1.49,1.05a1.37,1.37,0,0,0-.75,0A2.76,2.76,0,0,0,243.94,54.73Z"/><path class="cls-122" d="M240.65,48.16h.15a1.83,1.83,0,0,1,1.37-.17c.63.32,1.39.42,1.82,1.08a.21.21,0,0,1-.09.21,6.3,6.3,0,0,1-1.67.24,2,2,0,0,1-1.13-.61Z"/><path class="cls-123" d="M241.1,48.91a4.06,4.06,0,0,1,1.05.45,1,1,0,0,1,0,.68.65.65,0,0,1-.79.36H241c-.09-.46-.73-.53-.75-1C240.59,49.39,240.75,49,241.1,48.91Z"/><path class="cls-124" d="M271.59,41l-.45.15a1.18,1.18,0,0,1-.94,0,3.73,3.73,0,0,0-2.12,0c-1.81.31-3.11,1.49-4.49,2.58a19.47,19.47,0,0,1-3.29,2.24,1.71,1.71,0,0,0-1.21.55,1.09,1.09,0,0,1-.39.23c-.73.3-1.45.61-2.18.9a1.79,1.79,0,0,1-1.5,0c-.14-.34.14-.42.34-.53a2.52,2.52,0,0,1,.91-.31,4.23,4.23,0,0,0,2.44-1.09,12.88,12.88,0,0,0,3.82-2.35c1.65-1.23,3.16-2.74,5.27-3.19a5.08,5.08,0,0,1,3.19.26C271.05,40.74,271.59,40.6,271.59,41Z"/><path class="cls-125" d="M271,40.4c-.74,0-1.46-.18-2.21-.17a5.43,5.43,0,0,0-3.18,1.14c-.57.42-1.14.85-1.73,1.24a50.36,50.36,0,0,1-4.34,3,1.79,1.79,0,0,1-.79.12.11.11,0,0,1-.18,0c.19-.53.73-.64,1.14-.88a20.4,20.4,0,0,0,4.11-3.17,6.32,6.32,0,0,0,.71-.54,6.25,6.25,0,0,1,4.78-1.59c.44.05.89,0,1.34,0,.26,0,.65,0,.51.49C271.22,40.26,271.26,40.4,271,40.4Z"/><path class="cls-126" d="M271.15,40.1c0-.13-.08-.29-.21-.27-1.41.12-2.8-.34-4.26.33a23.36,23.36,0,0,0-2.86,1.73c-.24,0-.34-.06-.3-.3a2.41,2.41,0,0,0,.74-.46,9.22,9.22,0,0,1,2.49-1.74,1.83,1.83,0,0,1,1.64-.23.31.31,0,0,0,.21,0c1-.62,1.89.17,2.84.18,0,.23.21.3.3.45Z"/><path class="cls-127" d="M270.1,42.34l.45.45a.84.84,0,0,1-.82.13,3.52,3.52,0,0,0-2.27.13,7.49,7.49,0,0,0-2.8,1.48,26.76,26.76,0,0,1-4.22,2.74,23.36,23.36,0,0,1-3.63,1.61,5.77,5.77,0,0,1-2.69.45.75.75,0,0,1-.49-.3c.13-.42.52-.41.85-.45a5.28,5.28,0,0,0,1.3-.27,25.12,25.12,0,0,0,3.91-1.61c1.18-.6,2.16-1.49,3.31-2.12s1.82-1.44,2.87-2a3.09,3.09,0,0,0,1.66-.54l.23-.07a9.87,9.87,0,0,1,1.63,0A.81.81,0,0,1,270.1,42.34Z"/><path class="cls-128" d="M258.74,46.52l.3-.15a3,3,0,0,1,1.19-.6,36.79,36.79,0,0,0,3.41-2.41,11.25,11.25,0,0,1,2.59-1.91,7,7,0,0,1,3.37-.72,7.32,7.32,0,0,1,1.54.41v.45h-.31a.64.64,0,0,1-.55.12,4.35,4.35,0,0,0-3.32.21,18.1,18.1,0,0,0-3.84,2.53,21,21,0,0,1-3.92,2.39.47.47,0,0,1-.5,0A.24.24,0,0,1,258.74,46.52Z"/><path class="cls-129" d="M269.65,42.79h.9c.16,0,.34,0,.45.15-.11.19-.48.12-.45.44-.52.39-1.16.13-1.71.3a2.59,2.59,0,0,0-1.66.26.75.75,0,0,1-.84.07.27.27,0,0,1,.08-.39A4.4,4.4,0,0,1,269.65,42.79Z"/><path class="cls-130" d="M270.25,41.59h.59a1.5,1.5,0,0,1-.74.75,9.44,9.44,0,0,0-2.54-.15.44.44,0,0,1,.37-.55A4.07,4.07,0,0,1,270.25,41.59Z"/><path class="cls-131" d="M243.79,53.54l-.6.3c-.27-.6-.8-.18-1.19-.3l.3-.6c-.06-.64.48-.45.79-.56.37.1.79,0,1.08.39A.94.94,0,0,1,243.79,53.54Z"/><path class="cls-132" d="M268.75,46.37a6.59,6.59,0,0,0-3.38,1.16,1.13,1.13,0,0,1-.95.33,2.4,2.4,0,0,1-.8.62c-.39.13-.51,0-.36-.4a2.94,2.94,0,0,1,1.12-.95,17.36,17.36,0,0,1,3.12-1.68,1.6,1.6,0,0,1,1.4.32Z"/><path class="cls-133" d="M268.9,45.77a6.18,6.18,0,0,0-1.49-.15c-.16-.09-.41,0-.49-.21a2.6,2.6,0,0,1,2.73-1l1.2.89c-.3.27-.84,0-1.05.45Z"/><path class="cls-134" d="M241.4,50.4a1.61,1.61,0,0,0,.75-.45,1.56,1.56,0,0,1,1.6,0,.6.6,0,0,1,.25.55,1.28,1.28,0,0,1-1.29.8.73.73,0,0,1-.56-.19A1.81,1.81,0,0,0,241.4,50.4Z"/><path class="cls-135" d="M242.15,51.15h.6c.22.26.59.32.79.61a1,1,0,0,1-.35.73c-.23.28-.78-.08-.89.45h-.6V51.75C242,51.67,241.93,51.3,242.15,51.15Z"/><path class="cls-136" d="M269.65,44.43a1.17,1.17,0,0,1-.63.15,2.89,2.89,0,0,0-2.06.89c-.89.43-1.79.81-2.64,1.33a.48.48,0,0,1-.49.06c-.16-.17-.1-.35,0-.53a.8.8,0,0,1,.41-.38,2.66,2.66,0,0,0,1.08-.62,7.52,7.52,0,0,1,3.33-1.5c.3.09.63.05.87.3C269.48,44.26,269.81,44.23,269.65,44.43Z"/><path class="cls-137" d="M269.5,44.13a1.55,1.55,0,0,1-.9-.15c-.14-.21.37-.21.15-.45a5,5,0,0,1,1.8-.15c.14.36.47.52.74.75Z"/><path class="cls-138" d="M246.78,44a.58.58,0,0,1,.1-.8c.54-.23.36-.62.35-1,.76.81,1.73.68,2.69.6l.15.3c0,.12,0,.38.14.33.6-.2.46.32.61.56Z"/><path class="cls-139" d="M258.29,44c-.3.64-1.06.72-1.49,1.2a.42.42,0,0,1-.22.28c-1.52.5-3,1.24-4.67,1a1.78,1.78,0,0,0-1.5-.08c-.57.24-.89,0-1.12-.66.33-.44.8-.27,1.23-.3a5,5,0,0,0,2.19-.25,1.24,1.24,0,0,1,.51,0A8.63,8.63,0,0,0,258,44.05,1.28,1.28,0,0,1,258.29,44Z"/><path class="cls-140" d="M250.52,45.47c-.36.26-.82.12-1.2.3a7.32,7.32,0,0,1-3.08.36,1.3,1.3,0,0,1-.8-.28.37.37,0,0,1-.08-.33c.25-.33.48-.69,1-.64.17.5.58.34.85.21a1.31,1.31,0,0,1,1-.06,7.73,7.73,0,0,0,2.2.15A.29.29,0,0,0,250.52,45.47Z"/><path class="cls-141" d="M246.33,44.88c-.34.14-.52.51-.9.59a.75.75,0,0,1-.73.22,12.64,12.64,0,0,1-1.93-.37c-.3-.19-.24-.39,0-.59a1.44,1.44,0,0,0,1-.75h.45a3.13,3.13,0,0,0,2.09.45A.41.41,0,0,0,246.33,44.88Z"/><path class="cls-142" d="M242.75,44.73c0,.15-.18.3,0,.45.19.37,0,.57-.32.73a.88.88,0,0,1-.88-.14,2.49,2.49,0,0,1-1.05-.59.77.77,0,0,1,.65-.6.44.44,0,0,0,.4-.45C241.91,44.4,242.42,44.38,242.75,44.73Z"/><path class="cls-143" d="M251.86,46.37a14.08,14.08,0,0,0,4.94-1.19c.17,0,.37,0,.5-.06,1.82-1.13,3.94-1.79,5.42-3.46,0,0,.13,0,.2-.07v.3c.22.37-.08.57-.3.74a18.73,18.73,0,0,1-6.31,3.68,14,14,0,0,1-3.57.7c-.44-.13-1,0-1.2-.62A.2.2,0,0,1,251.86,46.37Z"/><path class="cls-144" d="M252.76,46.82a20.16,20.16,0,0,0,4.12-.94,21.18,21.18,0,0,0,5.64-3.41.71.71,0,0,0,.4-.58c.26,0,.39-.21.6-.3a.55.55,0,0,0,.3.3,10.54,10.54,0,0,1-2.56,2.19,21.52,21.52,0,0,1-2.67,1.69,3.34,3.34,0,0,1-1.87.93c-1.07.13-2.08.58-3.16.67-.43-.36-1,.12-1.41-.23C252.16,46.67,252.62,47,252.76,46.82Z"/><path class="cls-145" d="M246.93,59.51c.46-.52.72-1.32,1.64-1.19a1.17,1.17,0,0,1,1-.8,3,3,0,0,0,1.5-.76,1.17,1.17,0,0,1,1.55-.24,5.12,5.12,0,0,0-2.09,1.65l-1.65,1.34A2.24,2.24,0,0,1,246.93,59.51Z"/><path class="cls-146" d="M252.61,56.52a1.8,1.8,0,0,0-1.8.74,1.49,1.49,0,0,1-1.14.43,1.52,1.52,0,0,0-1.1.63c-.09-.43.35-.54.47-.83s.39-.37.28-.67c.11-.63.69-.76,1.12-1a5.18,5.18,0,0,0,1.86-.45,2.65,2.65,0,0,1,1.3-.25,3.22,3.22,0,0,0,1.35-.35,2.08,2.08,0,0,1,1.85,0c-.51.7-1.36.63-2.06.87a3.44,3.44,0,0,1-1.57.35c-.35-.05-.42.27-.41.57Z"/><path class="cls-147" d="M256.8,54.73a18.13,18.13,0,0,0-2.23.3c-1.44.2-2.74.92-4.2.9-.07-.19,0-.3.17-.4s0,0,.06,0a8.76,8.76,0,0,1,3.15-1.24c.7-.52,1.56-.16,2.3-.42,1.42-.48,3-.55,4.25-1.44a2.42,2.42,0,0,1,.69-.27,6.38,6.38,0,0,0,2.12-.85,1.19,1.19,0,0,1,1.31-.27c.25.32.65-.21.9.15a15.76,15.76,0,0,1-4,1.82c-.49.16-.88.59-1.4.72a1.17,1.17,0,0,1-1.08.62C258.16,54.34,257.54,54.85,256.8,54.73Z"/><path class="cls-148" d="M250.52,55.63l-.15.3-1.05.89a1.84,1.84,0,0,0-1.32.51,1.29,1.29,0,0,1-.92.39l-.3-1.2c.6-.06,1-.73,1.65-.59a8.84,8.84,0,0,1,1.19-.6h0A1.08,1.08,0,0,1,250.52,55.63Z"/><path class="cls-149" d="M247.53,54.73h-.15A2.45,2.45,0,0,1,249,53.45c.58-.2,1.15-.42,1.71-.65a5,5,0,0,0,1.93-.51,2.36,2.36,0,0,1,1.18-.16c.38.09.91-.19,1.08.43a.76.76,0,0,1-.77.56,3.28,3.28,0,0,0-1.07.25,35.43,35.43,0,0,1-3.77,1A9.18,9.18,0,0,1,247.53,54.73Z"/><path class="cls-150" d="M247.53,54.73c1.8-.64,3.68-1,5.53-1.49a.44.44,0,0,1,.11.46,1.72,1.72,0,0,1-1.44.78,3,3,0,0,0-1.06.25c-.19.09-.4.19-.6,0-.78.25-1.64-.26-2.4.23Z"/><path class="cls-151" d="M250.07,54.73c.56-.11,1-.52,1.64-.45a.85.85,0,0,0,.9-.1.79.79,0,0,1,1.2.25,19,19,0,0,0-3.29,1.2,1.14,1.14,0,0,1-.9-.3Z"/><path class="cls-152" d="M250.67,52.94a3.14,3.14,0,0,1-1.39.62,4.77,4.77,0,0,0-1.9,1.17h-1.2c-.07-.5.32-.67.63-.9a5.84,5.84,0,0,1,1.56-.67,3.31,3.31,0,0,1,1.85-.41A.6.6,0,0,1,250.67,52.94Z"/><path class="cls-151" d="M249.62,55.33a1.9,1.9,0,0,1-1.19.6A1.3,1.3,0,0,1,249.62,55.33Z"/><path class="cls-153" d="M248.42,53.39a3.25,3.25,0,0,0-2.24,1.34h-.3c-.37.11-.59-.22-.89-.3a6.1,6.1,0,0,1,1.19-1.19.51.51,0,0,1,.23-.15A5.89,5.89,0,0,1,247.8,53C248.05,53,248.38,53,248.42,53.39Z"/><path class="cls-154" d="M265.91,48.76l-1.64.6a4.82,4.82,0,0,0-1.48.8,1.22,1.22,0,0,1-1.3.32c-.24-.29.07-.38.22-.49a5.48,5.48,0,0,0,1.11-1,1.6,1.6,0,0,1,1.3-.49c.93-.44,2-.43,2.93-.92.27-.14.65-.5,1,0C267,47.5,266.56,48.26,265.91,48.76Z"/><path class="cls-155" d="M264.12,48.46a4.65,4.65,0,0,0-1.2.6A7.37,7.37,0,0,1,260,50.64c-1.52.6-3.09,1.08-4.66,1.53-.5.14-1,0-1.53.17a2.2,2.2,0,0,0-1.41.31,2.72,2.72,0,0,1-1.73.29h-.45c0-.49.39-.6.71-.72s.83-.33,1.26-.46c1.38-.16,2.69-.69,4.07-.89a19.6,19.6,0,0,0,2.4-.76,21.86,21.86,0,0,0,3.95-2,.6.6,0,0,1,.76,0c0,.11-.16.34.12.22s.56-.46.93-.52C264.44,48.12,264.2,48.25,264.12,48.46Z"/><path class="cls-156" d="M253.81,54.43c-.44-.16-.85-.46-1.35,0a.59.59,0,0,1-.75-.11,2,2,0,0,0,1.35-.59,2.47,2.47,0,0,1,1.15-.5c.6-.19,1.23-.13,1.84-.27a17.4,17.4,0,0,0,6.25-2.37,1.48,1.48,0,0,1,1.22-.15c.47-.16,1-.36,1.35.15a1,1,0,0,0-.45.45,3.34,3.34,0,0,0-1.78.83c-.31.3-.7.19-1.05.29-1.41.41-2.64,1.25-4.16,1.53a17.4,17.4,0,0,1-3,.48C254.19,54.13,254,54.33,253.81,54.43Z"/><path class="cls-157" d="M242.3,48.16h-1.5c-.1-.4.23-.79,0-1.19l.3-.15c.38-.31.79-.06,1.19-.06s.72,0,1.09,0a.53.53,0,0,1,.31.17,1.05,1.05,0,0,1,.25.65.52.52,0,0,1-.11.32C243.32,48,242.82,48.1,242.3,48.16Z"/><path class="cls-158" d="M243.49,46.82a4.72,4.72,0,0,1-2.39,0c0-.42.38-.67.45-1h.9a5.89,5.89,0,0,1,1.17.54C243.7,46.51,243.83,46.72,243.49,46.82Z"/><path class="cls-159" d="M263.52,50.4a6.56,6.56,0,0,0-2.59,1.28,9,9,0,0,1-2.16.64c-.26.09-.55.09-.7.35s-.39.25-.64.28c-1.1.14-2.2.29-3.3.46a5.62,5.62,0,0,1-1.07.28v-.45a.92.92,0,0,1,.85-.3,1.22,1.22,0,0,0,.94-.3c.5-.69,1.31-.56,2-.67a14.64,14.64,0,0,0,2.46-.77c.72-.24,1.42-.56,2.14-.8a1.73,1.73,0,0,0,1.52-.59,1.51,1.51,0,0,1,1.32-.45C264.07,49.74,263.41,49.8,263.52,50.4Z"/><path class="cls-160" d="M246.33,53.24h-.75c-.08-.33.12-.58.23-.85.37-.33.89-.28,1.3-.51.45,0,.93-.18,1.21.37a1.39,1.39,0,0,1-1.13.83A4.33,4.33,0,0,0,246.33,53.24Z"/><path class="cls-161" d="M245.88,52.49c.07.32-.16.51-.3.75a5.42,5.42,0,0,1-1.79.3l.3-.75a1.37,1.37,0,0,1,.95-.63C245.37,52.16,245.7,52.12,245.88,52.49Z"/><path class="cls-162" d="M243.94,49.21v-.15c.17-.46.57-.61,1-.77a4.38,4.38,0,0,1,2.21-.27.72.72,0,0,1,.4.24c.12.34-.13.48-.36.61a2.27,2.27,0,0,0-.61.5.57.57,0,0,1-.21.13,6.67,6.67,0,0,1-1.48.06A1.27,1.27,0,0,1,243.94,49.21Z"/><path class="cls-163" d="M244.84,48.46l-.9.6-1.64-.9c.47-.22.92-.58,1.49-.3C244.3,47.79,244.77,47.78,244.84,48.46Z"/><path class="cls-164" d="M243.94,49.21l.9.15c0,.74-.63.59-1.05.74a6,6,0,0,0-1.64-.15.47.47,0,0,1,0-.59A9,9,0,0,1,243.94,49.21Z"/><path class="cls-165" d="M253.51,47.27c1.66-.6,3.53-.51,5.08-1.5h.15a3.4,3.4,0,0,1-2.43,1.2,2,2,0,0,0-1.31.59c-1.21.69-2.59.61-3.9.8a2.75,2.75,0,0,1-1.35-.33c0-.38.36-.39.6-.44A20.89,20.89,0,0,1,253.51,47.27Z"/><path class="cls-166" d="M251.12,48.16c1-.28,2.16,0,3.15-.56.19-.11.48,0,.73,0,1.19.16,2.16-.47,3.19-.89a1.33,1.33,0,0,1,.55-.15v.3a3.64,3.64,0,0,1-1.79,1c-.62.17-1.24.36-1.87.51a12.51,12.51,0,0,0-3.09.59,1,1,0,0,1-.51,0,.61.61,0,0,1-.46-.4A.39.39,0,0,1,251.12,48.16Z"/><path class="cls-166" d="M260.23,45.77a4.44,4.44,0,0,1-1.19.6C259.27,45.84,259.74,45.77,260.23,45.77Z"/><path class="cls-167" d="M269.65,42.79c-1.23-.19-2.17.58-3.21,1-.05,0-.05.13-.08.2a.44.44,0,0,1-.15.12,1.43,1.43,0,0,0-.94.44c-.48.42-1,.82-1.42,1.25l-.18.1a1.1,1.1,0,0,0-.41.26,1.09,1.09,0,0,1-.17.13c-1.25.82-2.63,1.41-3.92,2.15a8.89,8.89,0,0,1-3.29,1.14c-.82.1-1.59.38-2.39.52a21.37,21.37,0,0,1-3.16.66,1.07,1.07,0,0,1-.7-.16c0-.43.36-.44.59-.51a16.61,16.61,0,0,1,3.89-.87,5.81,5.81,0,0,0,2.91-.69,1.23,1.23,0,0,1,.56-.18,3.28,3.28,0,0,0,2.34-1.11c.31-.34.83-.27,1.22-.5a38.29,38.29,0,0,0,4.1-2.83,6.15,6.15,0,0,1,3.54-1.24C269,42.65,269.45,42.23,269.65,42.79Z"/><path class="cls-168" d="M255.15,48.16a25.38,25.38,0,0,0,3.59-1.34,14.88,14.88,0,0,0,3.11-1.69c1.49-1,2.81-2.24,4.39-3.1a6,6,0,0,1,3.38-.74c.26,0,.5,0,.63.3a14.17,14.17,0,0,0-2.06.15.72.72,0,0,0-.63.45h0a10.85,10.85,0,0,0-1.65.6c-.4,0-.56.37-.84.57a43,43,0,0,1-7,4.37c-.7.33-1.48.38-2.16.73C255.66,48.35,255.34,48.4,255.15,48.16Z"/><path class="cls-169" d="M255.15,48.16c.29,0,.6,0,.75.3-.68.47-1.58.08-2.24.6-.24.4-.66.27-1,.34a12.49,12.49,0,0,1-2.86.33c-.33-.07-.72.08-.95-.31a4.27,4.27,0,0,1,1.78-.56c.26-.07.54,0,.79-.1a13.53,13.53,0,0,0,2-.46A10.44,10.44,0,0,1,255.15,48.16Z"/><path class="cls-170" d="M249.77,49.51a25.33,25.33,0,0,0,3.89-.45c.16,0,.34,0,.45.15a29.18,29.18,0,0,1-3.21.86c-.44.14-.86.31-1.28.48-.43.35-.93.18-1.41.21a.89.89,0,0,1-.48-.13c0-.77.67-.75,1.13-.94C249.13,49.57,249.47,49.63,249.77,49.51Z"/><path class="cls-130" d="M265.91,42.79c.38-.67,1-.54,1.65-.6A2.07,2.07,0,0,1,265.91,42.79Z"/><path class="cls-171" d="M266.21,44h.15a1.59,1.59,0,0,0,1-.34,1.46,1.46,0,0,1,1.37-.11c.17.22-.05.32-.15.45-1.25.16-2.2,1-3.28,1.49a5.71,5.71,0,0,0-1.05.6.55.55,0,0,0-.3.3,1.12,1.12,0,0,1-1.05.33c-.22-.37.17-.44.3-.63h0c.12-.15.32-.18.45-.3a6.75,6.75,0,0,0,1.57-1.25A2.17,2.17,0,0,1,266.21,44Z"/><path class="cls-172" d="M245,52.34c-.39,0-.51.47-.9.45s-.64-.06-.9-.3c-.06-.31.17-.51.3-.74a2.51,2.51,0,0,1,1.21-.42.59.59,0,0,1,.42.42A.6.6,0,0,1,245,52.34Z"/><path class="cls-173" d="M263.37,48.16a2.64,2.64,0,0,0-1.88.84c-1.23.92-2.71,1.15-4.05,1.76-1.16.52-2.5.37-3.67.94a5,5,0,0,1-1.61.19c-.22-.09-.48-.1-.63-.33.1-.34.42-.39.68-.53a22.06,22.06,0,0,0,4.58-.87,16.56,16.56,0,0,0,6.17-3c.24-.2.49-.44.86-.31.74-.38,1.5-.73,2.22-1.15a1.89,1.89,0,0,1,.92-.2c.16,0,.34,0,.45.15A19.22,19.22,0,0,0,263.37,48.16Z"/><path class="cls-174" d="M243.79,50.1c.25-.38.88-.25,1.05-.74h1.64c.18-.13.29-.06.36.12A3.66,3.66,0,0,1,245,50.71a1.27,1.27,0,0,1-1.09-.16Z"/><path class="cls-175" d="M243.94,50.55h1.2c.15-.11.27-.07.36.09-.05.49-.51.57-.81.81s-.75.4-1.2.3-.7-.15-.74-.6C243.31,51.29,243.55,50.77,243.94,50.55Z"/><path class="cls-176" d="M263.82,46.82c-.91.61-1.83,1.21-2.73,1.85a5.43,5.43,0,0,1-1.43.6c-1,.32-1.87.93-2.89,1.21-.64.17-1.28.11-1.94.3a5.36,5.36,0,0,1-2.67.37c-.1-.29.4-.19.3-.47a.74.74,0,0,1,.65-.3,5,5,0,0,0,2.46-.7,15.47,15.47,0,0,0,6.56-2.8c.23-.16.45-.42.79-.21l1.05-.3Z"/><path class="cls-176" d="M264.27,46.07a1,1,0,0,1,1.05-.6A1.31,1.31,0,0,1,264.27,46.07Z"/><path class="cls-177" d="M251.86,46.37h-.3a6.92,6.92,0,0,1-2.87.65c-.32,0-.64,0-1,.11a1.61,1.61,0,0,1-1.06-.11c-.13-.38-.57-.62-.49-1.1,1.07.3,2.08-.38,3.14-.15.31.47.61.79,1.26.39A1,1,0,0,1,251.86,46.37Z"/><path class="cls-178" d="M243.64,46.37a1.55,1.55,0,0,1-1.19-.6.85.85,0,0,0,.3-.59,12.09,12.09,0,0,0,2.68.29v.3c.06.69-.54.63-.92.76A.81.81,0,0,1,243.64,46.37Z"/><path class="cls-179" d="M243.64,46.37c.67,0,1.35.06,1.8-.6l.74.15c0,.38.67.42.45.9a3.45,3.45,0,0,1-3,.15l-.15-.15Z"/><path class="cls-180" d="M247.68,47l3-.46a3.16,3.16,0,0,1,.86-.14c.29.44.79.34,1.2.45-.13.24-.47.06-.6.3,0,0,0,.05,0,.05-1.39.07-2.73.57-4.13.56a.74.74,0,0,1-.5-.36C247.42,47.17,247.53,47.06,247.68,47Z"/><path class="cls-181" d="M247.83,47.56a5.39,5.39,0,0,0,1.91-.34,7.45,7.45,0,0,1,2.42-.1A2.43,2.43,0,0,0,253,47c.23-.09.49-.13.55.24-.82.52-1.77.2-2.64.43a4.19,4.19,0,0,0-1.1.31,2.84,2.84,0,0,1-2.24.3.3.3,0,0,1-.3-.15C247.23,47.77,247.59,47.72,247.83,47.56Z"/><path class="cls-182" d="M261.43,50.4c-.66.76-1.68.77-2.51,1.17a9.61,9.61,0,0,1-3.32.79,2.74,2.74,0,0,0-.75.28c-.22-.56-.7-.19-1-.3l2.59-.73a24.75,24.75,0,0,0,6.31-2.51.71.71,0,0,1,.21,0A4.46,4.46,0,0,1,261.43,50.4Z"/><path class="cls-183" d="M251.56,51.6c.24,0,.55-.1.6.29-.58.47-1.48.36-1.94,1a2.8,2.8,0,0,0-1.8.45c-.67-.32-1.39-.08-2.09-.15a10.77,10.77,0,0,0,1.95-.9A6.33,6.33,0,0,1,251.56,51.6Z"/><path class="cls-184" d="M247.68,47l-.15.3a1.12,1.12,0,0,1-.81.45c-.73.09-1.47.1-2.2.21a.66.66,0,0,1-.73-.36l-.15-.6a16.61,16.61,0,0,0,3-.15C247,47.1,247.33,46.91,247.68,47Z"/><path class="cls-185" d="M243.79,47.57a.89.89,0,0,0,.94.17c.91-.3,1.92,0,2.8-.47l.3.29c0,.39-.46.35-.6.6-.83-.18-1.59.28-2.39.3-.18-.5-.7-.4-1.05-.6Z"/><path class="cls-186" d="M251.56,51.6c-1.11.16-2.15.65-3.28.74-.3-.51-.8-.22-1.2-.3,0-.32.28-.33.44-.48a3.55,3.55,0,0,1,2.39-.61,3.89,3.89,0,0,0,1.59-.16c.32-.09.66-.22,1,.06.07.27-.29.11-.3.3S251.71,51.38,251.56,51.6Z"/><path class="cls-187" d="M247.53,51.75l-.45.29c-.31.4-.84.18-1.2.45a1.52,1.52,0,0,0-.89-.15v-.59c.57-.45,1.27-.28,1.91-.4A1,1,0,0,1,247.53,51.75Z"/><path class="cls-188" d="M247.53,48.31l2.24-.3,1.35.15v.3c-1.51.43-3,1-4.63.75C246.65,48.7,247.36,48.82,247.53,48.31Z"/><path class="cls-189" d="M246.48,49.21a20,20,0,0,0,3.54-.63,5.12,5.12,0,0,1,1.09-.12.55.55,0,0,0,.3.3c-.08.09-.17.25-.25.24-.79,0-1.49.48-2.29.36-.93.62-1.51.66-2.09.15a.3.3,0,0,0-.3-.15Z"/><path class="cls-190" d="M262.92,46.67c-.89.54-1.77,1.12-2.68,1.62a11.91,11.91,0,0,1-4.64,1.51,8.83,8.83,0,0,1-1.34.36.9.9,0,0,1-.75-.21,13.24,13.24,0,0,1,2.31-.58,11.64,11.64,0,0,0,4-1.55c1.07-.69,2.26-1.14,3.37-1.75Z"/><path class="cls-191" d="M253.51,50c.71.1,1.39-.2,2.09-.15a3.46,3.46,0,0,1-2.34.75.94.94,0,0,0-.8.3c-.68-.09-1.28.35-2,.34-.2,0-.39,0-.58,0,0-.34.32-.38.45-.6a5.16,5.16,0,0,0,2.12-.47A2.54,2.54,0,0,1,253.51,50Z"/><path class="cls-192" d="M250.37,50.55c.1.39-.28.42-.45.6a3.81,3.81,0,0,0-2.39.6c-.28.06-.43-.14-.6-.3.11-.68.74-.67,1.2-.9h2.24Z"/><path class="cls-190" d="M265.32,44.58c-.49.49-.86,1.12-1.65,1.19a9.58,9.58,0,0,1,1.5-1.34A.17.17,0,0,1,265.32,44.58Z"/><path class="cls-129" d="M265.32,44.58l-.15-.15a1,1,0,0,1,1-.45Z"/><path class="cls-190" d="M263.67,45.77a.45.45,0,0,1-.45.3C263.24,45.77,263.45,45.77,263.67,45.77Z"/><path class="cls-193" d="M246.78,49.51a1.51,1.51,0,0,0,1.46,0,1.07,1.07,0,0,1,.63-.11c.27.27.6.1.9.15-.67.4-1.55.39-2.09,1a2.47,2.47,0,0,1-2.24.15.31.31,0,0,0-.3-.15Z"/><path class="cls-194" d="M245.44,50.7l2.24-.15h.45l-1.2.9a11.51,11.51,0,0,1-1.94.3.5.5,0,0,0-.3-.3C244.76,51,245.23,51,245.44,50.7Z"/><path class="cls-38" d="M386.09,37.24h20.3V47h1.32A24.79,24.79,0,0,1,417,38.2q6.27-3.66,15.52-3.65a35,35,0,0,1,14.78,3.22,39.52,39.52,0,0,1,12.38,8.93,42.44,42.44,0,0,1,8.5,13.63,46.85,46.85,0,0,1,3.14,17.36,46.85,46.85,0,0,1-3.14,17.36,42.44,42.44,0,0,1-8.5,13.63,39.52,39.52,0,0,1-12.38,8.93,35,35,0,0,1-14.78,3.22q-9.25,0-15.52-3.63a24.65,24.65,0,0,1-9.25-8.75h-1.32L407.71,120v33.72H386.09ZM428,100.79a20.64,20.64,0,0,0,8.17-1.65A21.45,21.45,0,0,0,443,94.52a22.4,22.4,0,0,0,4.79-7.26,26.07,26.07,0,0,0,0-19.14A22.4,22.4,0,0,0,443,60.86a21.45,21.45,0,0,0-6.85-4.62A20.65,20.65,0,0,0,428,54.58a21.72,21.72,0,0,0-8.17,1.57A20.45,20.45,0,0,0,413,60.69,22.56,22.56,0,0,0,408.21,68a24.8,24.8,0,0,0-1.82,9.74,24.8,24.8,0,0,0,1.82,9.74A22.56,22.56,0,0,0,413,94.69a20.45,20.45,0,0,0,6.85,4.54A21.71,21.71,0,0,0,428,100.79Z"/><path class="cls-38" d="M476.92,118.14V0h21.63V118.14Z"/><path class="cls-38" d="M559.48,109.56h-1.32a37.08,37.08,0,0,1-9.16,8q-5.37,3.31-13.79,3.32a33.58,33.58,0,0,1-11.8-2.06,30.78,30.78,0,0,1-9.66-5.7,25.44,25.44,0,0,1-6.44-8.76A27,27,0,0,1,505,93.08a25.33,25.33,0,0,1,2.47-11.32,25.71,25.71,0,0,1,6.94-8.67,31.16,31.16,0,0,1,10.48-5.54A43.4,43.4,0,0,1,538,65.65a56.6,56.6,0,0,1,13,1.24,64,64,0,0,1,8.42,2.56V67a13.32,13.32,0,0,0-5.12-10.7A19.28,19.28,0,0,0,541.65,52q-11.24,0-19,9.41L507,50.72q12.87-16.17,35.17-16.17,18.81,0,28.72,8.83t9.91,26.19v48.57h-21.3Zm0-24.25a44.14,44.14,0,0,0-7.84-2.88,34.18,34.18,0,0,0-8.83-1.08q-7.77,0-12,3.38a10.29,10.29,0,0,0-4.21,8.32,9.33,9.33,0,0,0,4,7.92,15.35,15.35,0,0,0,9.33,3,19.85,19.85,0,0,0,7.92-1.56,19.6,19.6,0,0,0,6.19-4.12,18.35,18.35,0,0,0,5.37-12.94Z"/><path class="cls-38" d="M615.15,114.13l-34-76.89h24.59l20.48,49h1.15l19.65-49h24.1L620.43,153.73H597.15Z"/><path class="cls-38" d="M747.75,98.72a45.39,45.39,0,0,1-15.11,16q-9.5,6.1-23.2,6.1a44.44,44.44,0,0,1-17.08-3.22A40.8,40.8,0,0,1,669.74,95a45,45,0,0,1-3.22-17.27,44.35,44.35,0,0,1,3.13-16.61A41.87,41.87,0,0,1,691.7,38a40.48,40.48,0,0,1,16.92-3.47A44,44,0,0,1,726,37.77a35.35,35.35,0,0,1,12.72,8.94,38.43,38.43,0,0,1,7.75,13.48,52,52,0,0,1,2.65,16.88v2a11.21,11.21,0,0,0-.17,1.82,9.34,9.34,0,0,0-.16,1.82H687.82a22.63,22.63,0,0,0,2.72,8.5,20.39,20.39,0,0,0,5.12,6,19.84,19.84,0,0,0,6.68,3.47,26.28,26.28,0,0,0,7.43,1.07q7.44,0,12.3-3.38a24.65,24.65,0,0,0,7.68-8.51ZM728.1,67.3a14.33,14.33,0,0,0-1.4-4.82,17,17,0,0,0-3.64-5,18.92,18.92,0,0,0-5.94-3.81,21.79,21.79,0,0,0-8.5-1.5,19.73,19.73,0,0,0-12.22,4A21,21,0,0,0,689,67.3Z"/><path class="cls-38" d="M756.36,37.24h20.31V48.46H778A20.87,20.87,0,0,1,782,43a28.9,28.9,0,0,1,5.53-4.33,32.23,32.23,0,0,1,6.61-3,22.51,22.51,0,0,1,7-1.15,25.48,25.48,0,0,1,7.35.93,18.69,18.69,0,0,1,5.2,2.42l-5.78,19.28a20.86,20.86,0,0,0-4.37-1.57,25.69,25.69,0,0,0-5.86-.58,18.36,18.36,0,0,0-8.1,1.75,17.75,17.75,0,0,0-6.19,4.9,23.27,23.27,0,0,0-4,7.39,29.25,29.25,0,0,0-1.4,9.21v39.86H756.36Z"/></g></g></svg>